<svg width="197" height="196" viewBox="0 0 197 196" fill="none" xmlns="http://www.w3.org/2000/svg">
<path d="M46.66 84.128L118.991 38.4328V20.1599L46.66 65.8635V84.128Z" fill="#0E33F3"/>
<path d="M46.66 123.84L118.991 78.1449V63.3784L46.66 109.074V123.84Z" fill="#0E33F3"/>
<path d="M77.9955 84.1279L150.34 38.4328V23.0791L77.9955 68.7742V84.1279Z" fill="#0E33F3"/>
<path d="M150.34 62.791L77.9955 108.486V123.84L150.34 78.1447V62.791Z" fill="#0E33F3"/>
<path d="M26.5769 186.5V161.409H33.209V165.836H33.503C34.0257 164.366 34.8969 163.206 36.1166 162.357C37.3363 161.507 38.7956 161.082 40.4945 161.082C42.2151 161.082 43.6799 161.513 44.8887 162.373C46.0975 163.222 46.9033 164.377 47.3063 165.836H47.5676C48.0795 164.398 49.0051 163.25 50.3446 162.389C51.695 161.518 53.2904 161.082 55.1308 161.082C57.4722 161.082 59.3726 161.828 60.8318 163.32C62.302 164.801 63.0371 166.903 63.0371 169.626V186.5H56.0946V170.998C56.0946 169.604 55.7244 168.558 54.9838 167.862C54.2433 167.165 53.3176 166.816 52.2068 166.816C50.9436 166.816 49.958 167.219 49.2502 168.025C48.5423 168.82 48.1884 169.871 48.1884 171.178V186.5H41.4419V170.851C41.4419 169.62 41.088 168.64 40.3801 167.911C39.6832 167.181 38.763 166.816 37.6195 166.816C36.8463 166.816 36.1493 167.012 35.5286 167.404C34.9187 167.785 34.4341 168.324 34.0747 169.021C33.7154 169.707 33.5357 170.513 33.5357 171.439V186.5H26.5769ZM79.4105 186.99C76.8731 186.99 74.6788 186.451 72.8275 185.373C70.987 184.284 69.5659 182.77 68.564 180.832C67.5621 178.882 67.0611 176.623 67.0611 174.053C67.0611 171.461 67.5621 169.196 68.564 167.257C69.5659 165.308 70.987 163.794 72.8275 162.716C74.6788 161.627 76.8731 161.082 79.4105 161.082C81.948 161.082 84.1369 161.627 85.9773 162.716C87.8286 163.794 89.2552 165.308 90.2571 167.257C91.259 169.196 91.76 171.461 91.76 174.053C91.76 176.623 91.259 178.882 90.2571 180.832C89.2552 182.77 87.8286 184.284 85.9773 185.373C84.1369 186.451 81.948 186.99 79.4105 186.99ZM79.4432 181.599C80.5976 181.599 81.5614 181.273 82.3346 180.619C83.1078 179.955 83.6904 179.051 84.0824 177.908C84.4854 176.764 84.6868 175.463 84.6868 174.004C84.6868 172.544 84.4854 171.243 84.0824 170.099C83.6904 168.956 83.1078 168.052 82.3346 167.388C81.5614 166.723 80.5976 166.391 79.4432 166.391C78.278 166.391 77.2979 166.723 76.5029 167.388C75.7188 168.052 75.1253 168.956 74.7223 170.099C74.3303 171.243 74.1343 172.544 74.1343 174.004C74.1343 175.463 74.3303 176.764 74.7223 177.908C75.1253 179.051 75.7188 179.955 76.5029 180.619C77.2979 181.273 78.278 181.599 79.4432 181.599ZM102.784 171.994V186.5H95.8248V161.409H102.457V165.836H102.751C103.306 164.377 104.237 163.222 105.544 162.373C106.851 161.513 108.436 161.082 110.298 161.082C112.04 161.082 113.559 161.464 114.855 162.226C116.151 162.988 117.159 164.077 117.877 165.493C118.596 166.898 118.956 168.575 118.956 170.524V186.5H111.997V171.766C112.008 170.23 111.616 169.032 110.821 168.172C110.026 167.301 108.931 166.865 107.537 166.865C106.601 166.865 105.773 167.067 105.054 167.469C104.346 167.872 103.791 168.46 103.388 169.234C102.996 169.996 102.795 170.916 102.784 171.994ZM135.415 186.99C132.834 186.99 130.612 186.467 128.75 185.422C126.899 184.366 125.472 182.874 124.47 180.946C123.468 179.008 122.967 176.715 122.967 174.069C122.967 171.488 123.468 169.223 124.47 167.273C125.472 165.324 126.882 163.805 128.701 162.716C130.531 161.627 132.676 161.082 135.137 161.082C136.792 161.082 138.333 161.349 139.76 161.883C141.197 162.406 142.45 163.195 143.517 164.251C144.595 165.308 145.434 166.636 146.033 168.237C146.632 169.827 146.931 171.689 146.931 173.824V175.735H125.744V171.423H140.381C140.381 170.421 140.163 169.533 139.727 168.76C139.292 167.987 138.687 167.382 137.914 166.947C137.152 166.5 136.264 166.277 135.251 166.277C134.195 166.277 133.258 166.522 132.442 167.012C131.636 167.491 131.004 168.139 130.547 168.956C130.089 169.762 129.855 170.66 129.844 171.651V175.751C129.844 176.993 130.073 178.066 130.531 178.969C130.999 179.873 131.658 180.57 132.507 181.06C133.356 181.55 134.364 181.795 135.529 181.795C136.302 181.795 137.01 181.687 137.653 181.469C138.295 181.251 138.845 180.924 139.303 180.489C139.76 180.053 140.108 179.519 140.348 178.888L146.784 179.312C146.457 180.859 145.788 182.209 144.775 183.364C143.773 184.507 142.477 185.4 140.887 186.043C139.308 186.674 137.484 186.99 135.415 186.99ZM156.378 161.409L160.985 170.181L165.706 161.409H172.844L165.575 173.955L173.04 186.5H165.934L160.985 177.826L156.117 186.5H148.93L156.378 173.955L149.191 161.409H156.378Z" fill="#242D35"/>
</svg>
