<svg width="26" height="26" viewBox="0 0 26 26" fill="none" xmlns="http://www.w3.org/2000/svg">
<path d="M16.7917 6.22918C17.9834 6.22918 18.9584 5.25418 18.9584 4.0625C18.9584 2.87081 17.9834 1.89581 16.7917 1.89581C15.6 1.89581 14.625 2.87081 14.625 4.0625C14.625 5.25418 15.6 6.22918 16.7917 6.22918Z" fill="#242D35"/>
<path d="M5.41668 13.2708C2.4375 13.2708 0 15.7083 0 18.6875C0 21.6667 2.4375 24.1042 5.41668 24.1042C8.39587 24.1042 10.8334 21.6667 10.8334 18.6875C10.8334 15.7083 8.39582 13.2708 5.41668 13.2708ZM5.41668 22.4792C3.30418 22.4792 1.625 20.8 1.625 18.6875C1.625 16.575 3.30418 14.8958 5.41668 14.8958C7.52918 14.8958 9.20837 16.575 9.20837 18.6875C9.20837 20.8 7.52918 22.4792 5.41668 22.4792Z" fill="#242D35"/>
<path d="M20.5292 12.1333V9.96663C18.9042 9.96663 17.55 9.37082 16.575 8.39582L14.4625 6.3375C14.1375 5.95832 13.5958 5.6875 13 5.6875C12.4042 5.6875 11.8625 5.90418 11.4833 6.3375L8.50413 9.31668C8.12494 9.69587 7.85413 10.2375 7.85413 10.8334C7.85413 11.4292 8.12494 11.9709 8.50413 12.4042L11.9166 15.4375V20.8542H14.0833V14.0833L11.7 11.7L14.2458 9.1L15.0583 9.9125C16.4125 11.3208 18.3083 12.1333 20.5292 12.1333Z" fill="#242D35"/>
<path d="M20.5833 13.2708C17.6041 13.2708 15.1666 15.7083 15.1666 18.6875C15.1666 21.6667 17.6041 24.1042 20.5833 24.1042C23.5625 24.1042 26 21.6667 26 18.6875C26 15.7083 23.5625 13.2708 20.5833 13.2708ZM20.5833 22.4792C18.4708 22.4792 16.7916 20.8 16.7916 18.6875C16.7916 16.575 18.4708 14.8958 20.5833 14.8958C22.6958 14.8958 24.375 16.575 24.375 18.6875C24.375 20.8 22.6958 22.4792 20.5833 22.4792Z" fill="#242D35"/>
</svg>
