<svg width="30" height="30" viewBox="0 0 30 30" fill="none" xmlns="http://www.w3.org/2000/svg">
<path d="M5.9375 8.90625C5.68738 8.90625 5.48438 9.11672 5.48438 9.375C5.48438 9.63328 5.68738 9.84375 5.9375 9.84375H10.4688C10.7189 9.84375 10.9219 9.63328 10.9219 9.375C10.9219 9.11672 10.7189 8.90625 10.4688 8.90625H5.9375Z" fill="#242D35"/>
<path d="M8.74592 7.96875L9.51624 4.38422C9.20947 4.12172 8.67206 3.75 8.20308 3.75C7.7341 3.75 7.19669 4.12172 6.89038 4.38422L7.66069 7.96875H8.74592Z" fill="#242D35"/>
<path d="M26.7812 12.6562H27.6875C27.9376 12.6562 28.1406 12.4458 28.1406 12.1875C28.1406 11.9292 27.9376 11.7188 27.6875 11.7188H26.7812C26.5311 11.7188 26.3281 11.9292 26.3281 12.1875C26.3281 12.4458 26.5311 12.6562 26.7812 12.6562Z" fill="#242D35"/>
<path d="M6.73186 7.96878L6.15458 5.28143L5.98692 5.3105C5.25286 5.43706 4.69959 6.03518 4.59583 6.77675L6.51617 7.96878H6.73186Z" fill="#242D35"/>
<path d="M19.9386 4.21875H18.1719V6.04641C19.0582 5.85938 19.7578 5.13562 19.9386 4.21875Z" fill="#242D35"/>
<path d="M21.7969 8.90625C22.2967 8.90625 22.7031 9.32672 22.7031 9.84375C22.7031 9.85313 22.7009 9.86156 22.7004 9.87047C23.8504 9.97594 24.9071 10.4827 25.7255 11.3123C25.8818 11.1108 26.0884 10.9561 26.3281 10.8675V6.99375C24.942 6.78703 23.8455 5.65266 23.6456 4.21875H20.8544C20.6545 5.65266 19.558 6.78703 18.1719 6.99375V8.91047C18.1877 8.91 18.2031 8.90625 18.219 8.90625H21.7969Z" fill="#242D35"/>
<path d="M26.3281 6.04641V4.21875H24.5614C24.7422 5.13562 25.4418 5.85938 26.3281 6.04641Z" fill="#242D35"/>
<path d="M11.8105 6.77675C11.7067 6.03471 11.1534 5.43706 10.4194 5.3105L10.2517 5.28143L9.67444 7.96878H9.89013L11.8105 6.77675Z" fill="#242D35"/>
<path d="M25.4409 12.3806C24.7028 11.4178 23.6261 10.8497 22.4453 10.7925C22.129 11.3442 21.554 11.7187 20.8906 11.7187H18.8674L18.8497 11.7464C18.6631 12.0361 18.4315 12.2822 18.1719 12.4875V15C18.1719 17.3259 20.0011 19.2187 22.25 19.2187C23.5074 19.2187 24.662 18.6351 25.4409 17.6194C25.4794 17.3348 25.5981 17.0789 25.7758 16.875C25.5583 16.6256 25.4223 16.2989 25.4223 15.9375C25.4223 15.5761 25.5587 15.2494 25.7758 15C25.5583 14.7506 25.4223 14.4239 25.4223 14.0625C25.4223 13.7011 25.5587 13.3744 25.7758 13.125C25.5977 12.9211 25.479 12.6651 25.4409 12.3806ZM22.25 14.5312C22.9995 14.5312 23.6094 15.1622 23.6094 15.9375C23.6094 16.5478 23.2292 17.0634 22.7031 17.2575V18.2812H21.7969V17.2575C21.2708 17.0634 20.8906 16.5478 20.8906 15.9375H21.7969C21.7969 16.1958 21.9999 16.4062 22.25 16.4062C22.5001 16.4062 22.7031 16.1958 22.7031 15.9375C22.7031 15.6792 22.5001 15.4687 22.25 15.4687C21.5005 15.4687 20.8906 14.8378 20.8906 14.0625C20.8906 13.4522 21.2708 12.9365 21.7969 12.7425V11.7187H22.7031V12.7425C23.2292 12.9365 23.6094 13.4522 23.6094 14.0625H22.7031C22.7031 13.8042 22.5001 13.5937 22.25 13.5937C21.9999 13.5937 21.7969 13.8042 21.7969 14.0625C21.7969 14.3208 21.9999 14.5312 22.25 14.5312Z" fill="#242D35"/>
<path d="M27.6875 17.3438H26.7812C26.5311 17.3438 26.3281 17.5542 26.3281 17.8125C26.3281 18.0708 26.5311 18.2812 26.7812 18.2812H27.6875C27.9376 18.2812 28.1406 18.0708 28.1406 17.8125C28.1406 17.5542 27.9376 17.3438 27.6875 17.3438Z" fill="#242D35"/>
<path d="M27.6875 15.4688H26.7812C26.5311 15.4688 26.3281 15.6792 26.3281 15.9375C26.3281 16.1958 26.5311 16.4062 26.7812 16.4062H27.6875C27.9376 16.4062 28.1406 16.1958 28.1406 15.9375C28.1406 15.6792 27.9376 15.4688 27.6875 15.4688Z" fill="#242D35"/>
<path d="M22.25 20.1562C20.5644 20.1562 19.0745 19.2839 18.1719 17.9554V23.0062C19.558 23.2129 20.6545 24.3473 20.8544 25.7812H23.6456C23.8455 24.3473 24.942 23.2129 26.3281 23.0062V19.1325C26.0884 19.0439 25.8818 18.8892 25.7255 18.6876C24.8011 19.6251 23.5727 20.1562 22.25 20.1562Z" fill="#242D35"/>
<path d="M27.6875 13.5938H26.7812C26.5311 13.5938 26.3281 13.8042 26.3281 14.0625C26.3281 14.3208 26.5311 14.5312 26.7812 14.5312H27.6875C27.9376 14.5312 28.1406 14.3208 28.1406 14.0625C28.1406 13.8042 27.9376 13.5938 27.6875 13.5938Z" fill="#242D35"/>
<path d="M18.1719 23.9536V25.7813H19.9386C19.7578 24.8644 19.0582 24.1406 18.1719 23.9536Z" fill="#242D35"/>
<path d="M24.5614 25.7813H26.3281V23.9536C25.4418 24.1406 24.7422 24.8644 24.5614 25.7813Z" fill="#242D35"/>
<path d="M20.8907 10.7812C21.3905 10.7812 21.7969 10.3608 21.7969 9.84375H18.219C17.7065 9.84375 17.204 10.0261 16.8039 10.3575L15.1591 11.7188H12.0157L13.3294 13.0777C14.357 14.1408 15.0381 15.4669 15.314 16.9097L16.388 17.7984C16.6444 18.0108 16.9471 18.1519 17.2657 18.2241V12.9741C16.9761 13.0692 16.6721 13.125 16.3594 13.125V12.1875C17.0586 12.1875 17.7079 11.828 18.0958 11.2261L18.3826 10.7812H20.8907Z" fill="#242D35"/>
<path d="M9.82803 10.7812H6.57822L3.71764 13.7405C2.51912 14.9803 1.85938 16.628 1.85938 18.3811V18.75C1.85938 22.3687 4.705 25.3125 8.20312 25.3125C11.7013 25.3125 14.5469 22.3687 14.5469 18.75V18.3811C14.5469 16.628 13.8871 14.9798 12.6886 13.7405L9.82803 10.7812ZM8.20312 24.375V23.4375C8.47998 23.4375 8.75775 23.4113 9.02691 23.3597L9.19139 24.2817C8.86786 24.3436 8.53481 24.375 8.20312 24.375ZM13.6406 18.75C13.6406 21.0455 12.2504 23.1511 10.1806 23.9897L9.85023 23.1169C11.5753 22.418 12.7344 20.663 12.7344 18.75H13.6406Z" fill="#242D35"/>
</svg>
