<svg width="25" height="24" viewBox="0 0 25 24" fill="none" xmlns="http://www.w3.org/2000/svg">
<path fill-rule="evenodd" clip-rule="evenodd" d="M13.4889 1.21065C13.1278 0.929784 12.6222 0.929784 12.2611 1.21065L3.26106 8.21065C3.01747 8.4001 2.875 8.69141 2.875 9V20C2.875 20.7957 3.19107 21.5587 3.75368 22.1213C4.31629 22.6839 5.07935 23 5.875 23H19.875C20.6707 23 21.4337 22.6839 21.9963 22.1213C22.5589 21.5587 22.875 20.7957 22.875 20V9C22.875 8.69141 22.7325 8.4001 22.4889 8.21065L13.4889 1.21065ZM16.875 21H19.875C20.1402 21 20.3946 20.8946 20.5821 20.7071C20.7696 20.5196 20.875 20.2652 20.875 20V9.48908L12.875 3.26686L4.875 9.48908V20C4.875 20.2652 4.98036 20.5196 5.16789 20.7071C5.35543 20.8946 5.60978 21 5.875 21H8.875V12C8.875 11.4477 9.32272 11 9.875 11H15.875C16.4273 11 16.875 11.4477 16.875 12V21ZM10.875 21V13H14.875V21H10.875Z" fill="#9BA1A8"/>
</svg>
