<svg width="125" height="40" viewBox="0 0 125 40" fill="none" xmlns="http://www.w3.org/2000/svg">
<path d="M5.59998 23.3689L25.692 10.6758V5.60001L5.59998 18.2955V23.3689Z" fill="#0E33F3"/>
<path d="M5.59998 34.4L25.692 21.7069V17.6051L5.59998 30.2982V34.4Z" fill="#0E33F3"/>
<path d="M14.3043 23.3689L34.4 10.6758V6.41089L14.3043 19.104V23.3689Z" fill="#0E33F3"/>
<path d="M34.4 17.442L14.3043 30.1351V34.4L34.4 21.7069V17.442Z" fill="#0E33F3"/>
<path d="M47.4489 29V15.9091H50.9091V18.2188H51.0625C51.3352 17.4517 51.7898 16.8466 52.4261 16.4034C53.0625 15.9602 53.8239 15.7386 54.7102 15.7386C55.608 15.7386 56.3722 15.9631 57.0028 16.4119C57.6335 16.8551 58.054 17.4574 58.2642 18.2188H58.4006C58.6676 17.4688 59.1506 16.8693 59.8494 16.4205C60.554 15.9659 61.3864 15.7386 62.3466 15.7386C63.5682 15.7386 64.5597 16.1278 65.321 16.9062C66.0881 17.679 66.4716 18.7756 66.4716 20.196V29H62.8494V20.9119C62.8494 20.1847 62.6563 19.6392 62.2699 19.2756C61.8835 18.9119 61.4006 18.7301 60.821 18.7301C60.1619 18.7301 59.6477 18.9403 59.2784 19.3608C58.9091 19.7756 58.7244 20.3239 58.7244 21.0057V29H55.2045V20.8352C55.2045 20.1932 55.0199 19.6818 54.6506 19.3011C54.2869 18.9205 53.8068 18.7301 53.2102 18.7301C52.8068 18.7301 52.4432 18.8324 52.1193 19.0369C51.8011 19.2358 51.5483 19.517 51.3608 19.8807C51.1733 20.2386 51.0795 20.6591 51.0795 21.142V29H47.4489ZM75.0143 29.2557C73.6904 29.2557 72.5455 28.9744 71.5796 28.4119C70.6194 27.8437 69.8779 27.054 69.3552 26.0426C68.8324 25.0256 68.5711 23.8466 68.5711 22.5057C68.5711 21.1534 68.8324 19.9716 69.3552 18.9602C69.8779 17.9432 70.6194 17.1534 71.5796 16.5909C72.5455 16.0227 73.6904 15.7386 75.0143 15.7386C76.3381 15.7386 77.4802 16.0227 78.4404 16.5909C79.4063 17.1534 80.1506 17.9432 80.6734 18.9602C81.1961 19.9716 81.4574 21.1534 81.4574 22.5057C81.4574 23.8466 81.1961 25.0256 80.6734 26.0426C80.1506 27.054 79.4063 27.8437 78.4404 28.4119C77.4802 28.9744 76.3381 29.2557 75.0143 29.2557ZM75.0313 26.4432C75.6336 26.4432 76.1364 26.2727 76.5398 25.9318C76.9432 25.5852 77.2472 25.1136 77.4518 24.517C77.662 23.9205 77.7671 23.2415 77.7671 22.4801C77.7671 21.7188 77.662 21.0398 77.4518 20.4432C77.2472 19.8466 76.9432 19.375 76.5398 19.0284C76.1364 18.6818 75.6336 18.5085 75.0313 18.5085C74.4234 18.5085 73.912 18.6818 73.4972 19.0284C73.0881 19.375 72.7785 19.8466 72.5682 20.4432C72.3637 21.0398 72.2614 21.7188 72.2614 22.4801C72.2614 23.2415 72.3637 23.9205 72.5682 24.517C72.7785 25.1136 73.0881 25.5852 73.4972 25.9318C73.912 26.2727 74.4234 26.4432 75.0313 26.4432ZM87.2089 21.4318V29H83.5782V15.9091H87.0385V18.2188H87.1919C87.4816 17.4574 87.9674 16.8551 88.6493 16.4119C89.3311 15.9631 90.1578 15.7386 91.1294 15.7386C92.0385 15.7386 92.8311 15.9375 93.5072 16.3352C94.1834 16.733 94.7089 17.3011 95.0839 18.0398C95.4589 18.7727 95.6464 19.6477 95.6464 20.6648V29H92.0157V21.3125C92.0214 20.5114 91.8169 19.8864 91.4021 19.4375C90.9873 18.983 90.4163 18.7557 89.689 18.7557C89.2004 18.7557 88.7686 18.8608 88.3936 19.071C88.0243 19.2812 87.7345 19.5881 87.5243 19.9915C87.3197 20.3892 87.2146 20.8693 87.2089 21.4318ZM104.234 29.2557C102.887 29.2557 101.728 28.983 100.757 28.4375C99.7907 27.8864 99.0463 27.108 98.5236 26.1023C98.0009 25.0909 97.7395 23.8949 97.7395 22.5142C97.7395 21.1676 98.0009 19.9858 98.5236 18.9688C99.0463 17.9517 99.7821 17.1591 100.731 16.5909C101.686 16.0227 102.805 15.7386 104.089 15.7386C104.953 15.7386 105.757 15.8778 106.501 16.1562C107.251 16.429 107.904 16.8409 108.461 17.392C109.024 17.9432 109.461 18.6364 109.774 19.4716C110.086 20.3011 110.242 21.2727 110.242 22.3864V23.3835H99.1884V21.1335H106.825C106.825 20.6108 106.711 20.1477 106.484 19.7443C106.257 19.3409 105.941 19.0256 105.538 18.7983C105.14 18.5653 104.677 18.4489 104.149 18.4489C103.597 18.4489 103.109 18.5767 102.683 18.8324C102.262 19.0824 101.933 19.4205 101.694 19.8466C101.455 20.267 101.333 20.7358 101.328 21.2528V23.392C101.328 24.0398 101.447 24.5994 101.686 25.071C101.93 25.5426 102.274 25.9062 102.717 26.1619C103.16 26.4176 103.686 26.5455 104.293 26.5455C104.697 26.5455 105.066 26.4886 105.401 26.375C105.737 26.2614 106.024 26.0909 106.262 25.8636C106.501 25.6364 106.683 25.358 106.808 25.0284L110.166 25.25C109.995 26.0568 109.646 26.7614 109.117 27.3636C108.595 27.9602 107.918 28.4261 107.089 28.7614C106.265 29.0909 105.313 29.2557 104.234 29.2557ZM115.171 15.9091L117.575 20.4858L120.038 15.9091H123.762L119.97 22.4545L123.865 29H120.157L117.575 24.4744L115.035 29H111.285L115.171 22.4545L111.421 15.9091H115.171Z" fill="#242D35"/>
</svg>
