<svg width="295" height="417" viewBox="0 0 295 417" fill="none" xmlns="http://www.w3.org/2000/svg">
<g clip-path="url(#clip0_1_26669)">
<path d="M161.939 79.47C124.296 79.47 61.95 96.3672 61.95 147.773C61.95 191.562 114.886 230.117 164.527 230.117C214.169 230.117 264.517 199.178 264.517 152.294C264.517 101.992 212.993 79.47 161.939 79.47Z" fill="url(#paint0_linear_1_26669)"/>
</g>
<g clip-path="url(#clip1_1_26669)">
<path d="M267.597 183.31H198.202C194.887 177.125 203.277 170.63 209.699 174.96C207.524 163.105 225.753 157.848 230.31 168.569C235.8 156.302 257.033 158.776 254.754 175.682C261.279 171.661 270.186 176.609 267.597 183.31Z" fill="white"/>
</g>
<g clip-path="url(#clip2_1_26669)">
<path d="M261.261 329.63H31.6015L38.0511 319.277L47.8721 317.197L55.7096 297.877L87.0564 286.779L95.0936 265.61L116.025 255.076L116.182 250.418L134.657 224.049L151.144 212.769L152.477 197.924L156.799 149.757L171.58 126.572L177.929 125.285L191.024 100.12L207.987 166.5L222.472 176.417L230.279 226.92L231.599 235.458L244 247.15L261.261 329.63Z" fill="url(#paint1_linear_1_26669)"/>
<path d="M151.144 212.769L150.408 221.882C144.299 225.551 145.846 235.101 141.619 239.223C137.453 243.285 132.654 241.187 128.823 246.654C123.961 253.589 126.442 267.262 116.323 270.828C107.772 273.842 99.9536 264.685 95.0936 265.61L116.024 255.076L116.182 250.418L134.656 224.049L151.144 212.769ZM230.279 226.92C228.028 229.563 221.43 229.909 216.57 226.838C210.961 223.295 206.053 208.26 196.263 206.249C186.214 204.187 180.31 215.494 171.381 211.517C164.203 208.319 163.345 194.096 152.477 197.924L156.799 149.757L171.58 126.572L177.929 125.285L191.024 100.12L207.987 166.5L222.472 176.416L230.279 226.92L230.279 226.92Z" fill="white"/>
<path d="M261.261 330.022H31.6015C31.5314 330.022 31.4626 330.003 31.4022 329.968C31.3418 329.932 31.2921 329.881 31.258 329.82C31.2239 329.759 31.2069 329.69 31.2085 329.62C31.2102 329.55 31.2305 329.482 31.2674 329.422L37.717 319.069C37.7449 319.024 37.7817 318.985 37.8251 318.955C37.8684 318.925 37.9175 318.903 37.9693 318.892L47.5858 316.856L55.345 297.729C55.3659 297.678 55.3974 297.631 55.4376 297.593C55.4777 297.555 55.5256 297.525 55.578 297.507L86.7531 286.47L94.7257 265.47C94.7605 265.378 94.8286 265.303 94.9165 265.259L115.639 254.83L115.789 250.404C115.792 250.328 115.816 250.255 115.86 250.192L134.334 223.823C134.361 223.785 134.395 223.751 134.434 223.724L150.768 212.549L152.084 197.889L156.406 149.722C156.412 149.659 156.433 149.599 156.466 149.546L171.248 126.361C171.276 126.316 171.314 126.278 171.357 126.248C171.401 126.218 171.45 126.197 171.502 126.187L177.666 124.937L190.675 99.9383C190.712 99.8678 190.769 99.8101 190.84 99.7728C190.91 99.7354 190.99 99.7202 191.069 99.7292C191.148 99.7384 191.223 99.7713 191.283 99.8236C191.343 99.876 191.385 99.9453 191.405 100.022L208.331 166.26L222.694 176.092C222.784 176.154 222.844 176.249 222.86 176.357L231.967 235.264L244.27 246.864C244.328 246.919 244.368 246.99 244.385 247.069L261.646 329.549C261.658 329.606 261.657 329.665 261.643 329.722C261.629 329.779 261.603 329.832 261.566 329.877C261.529 329.922 261.482 329.959 261.43 329.984C261.377 330.009 261.319 330.022 261.261 330.022ZM32.3096 329.237H260.777L243.64 247.35L231.329 235.743C231.265 235.683 231.223 235.604 231.21 235.518L222.109 176.645L207.765 166.824C207.686 166.77 207.629 166.69 207.606 166.597L190.898 101.214L178.278 125.466C178.251 125.518 178.213 125.563 178.166 125.598C178.119 125.633 178.065 125.658 178.007 125.669L171.822 126.924L157.182 149.887L152.868 197.959L151.536 212.804C151.53 212.861 151.513 212.917 151.483 212.967C151.454 213.017 151.414 213.06 151.366 213.093L134.938 224.332L116.572 250.547L116.418 255.089C116.415 255.159 116.394 255.228 116.356 255.287C116.318 255.347 116.265 255.395 116.202 255.426L95.4073 265.891L87.4243 286.918C87.404 286.972 87.3724 287.02 87.3316 287.06C87.2908 287.1 87.2417 287.13 87.1879 287.149L56.0079 298.188L48.2364 317.344C48.2122 317.404 48.1738 317.457 48.1245 317.498C48.0751 317.539 48.0164 317.568 47.9535 317.581L38.2965 319.626L32.3096 329.237Z" fill="#242D35"/>
<path d="M173.018 153.213C173.01 153.213 173.001 153.213 172.993 153.213C172.941 153.209 172.891 153.196 172.845 153.173C172.798 153.15 172.757 153.119 172.723 153.08C172.689 153.041 172.663 152.996 172.646 152.948C172.629 152.899 172.622 152.847 172.625 152.796L173.965 131.798C173.969 131.741 173.985 131.685 174.012 131.635L177.583 125.096C177.634 125.006 177.718 124.939 177.818 124.91C177.917 124.882 178.024 124.893 178.115 124.943C178.206 124.993 178.274 125.076 178.303 125.175C178.333 125.274 178.322 125.381 178.274 125.472L174.744 131.935L173.41 152.846C173.404 152.945 173.36 153.039 173.287 153.107C173.214 153.175 173.118 153.213 173.018 153.213ZM207.988 166.5L217.139 204.868L212.563 169.633L207.988 166.5Z" fill="#242D35"/>
<path d="M217.139 205.261C217.051 205.26 216.965 205.231 216.896 205.176C216.826 205.121 216.777 205.045 216.757 204.959L207.605 166.591C207.587 166.514 207.592 166.433 207.621 166.359C207.649 166.285 207.7 166.222 207.765 166.177C207.831 166.132 207.908 166.108 207.987 166.108C208.067 166.108 208.144 166.132 208.21 166.176L212.786 169.31C212.878 169.373 212.939 169.472 212.953 169.583L217.529 204.818C217.536 204.873 217.532 204.929 217.515 204.983C217.499 205.036 217.471 205.086 217.435 205.128C217.398 205.17 217.352 205.203 217.301 205.226C217.25 205.249 217.195 205.261 217.139 205.261L217.139 205.261ZM208.607 167.4L215.786 197.497L212.196 169.858L208.607 167.4ZM115.876 330.023C115.808 330.023 115.741 330.005 115.682 329.972C115.623 329.939 115.574 329.89 115.539 329.832C115.504 329.774 115.485 329.708 115.483 329.64C115.482 329.572 115.498 329.505 115.529 329.446L127.285 307.451C127.343 307.343 127.447 307.268 127.567 307.248L134.496 306.095L144.087 283.255C144.117 283.184 144.167 283.123 144.232 283.08C144.296 283.037 144.372 283.014 144.45 283.014H181.328L186.071 247.334C186.079 247.277 186.098 247.223 186.129 247.175L195.891 231.855L192.822 184.414C192.818 184.363 192.825 184.311 192.842 184.262C192.859 184.214 192.885 184.169 192.919 184.13C192.953 184.091 192.994 184.059 193.041 184.037C193.087 184.014 193.137 184 193.189 183.997C193.241 183.994 193.292 184.001 193.341 184.017C193.39 184.034 193.435 184.06 193.474 184.094C193.513 184.128 193.544 184.169 193.567 184.216C193.59 184.262 193.603 184.312 193.607 184.364L196.685 231.932C196.69 232.015 196.669 232.098 196.624 232.168L186.839 247.524L182.062 283.458C182.05 283.553 182.003 283.639 181.932 283.702C181.86 283.765 181.768 283.799 181.673 283.799H144.711L135.137 306.598C135.112 306.659 135.071 306.713 135.019 306.754C134.966 306.796 134.905 306.823 134.839 306.834L127.888 307.991L116.223 329.815C116.19 329.878 116.14 329.931 116.078 329.967C116.017 330.004 115.947 330.023 115.876 330.023ZM231.598 235.458L237.415 273.288L236.479 240.059L231.598 235.458Z" fill="#242D35"/>
<path d="M237.414 273.681C237.32 273.681 237.23 273.647 237.158 273.586C237.087 273.525 237.04 273.441 237.026 273.348L231.21 235.518C231.197 235.437 231.21 235.354 231.247 235.281C231.284 235.208 231.343 235.148 231.415 235.11C231.488 235.072 231.571 235.058 231.652 235.069C231.733 235.08 231.809 235.116 231.868 235.172L236.749 239.773C236.825 239.845 236.869 239.944 236.872 240.048L237.808 273.277C237.809 273.329 237.8 273.382 237.781 273.431C237.762 273.48 237.733 273.524 237.697 273.562C237.66 273.6 237.616 273.63 237.568 273.65C237.519 273.67 237.467 273.681 237.414 273.681ZM232.161 236.528L236.844 266.987L236.09 240.233L232.16 236.528L232.161 236.528ZM190.578 330.023C190.519 330.023 190.46 330.01 190.407 329.985C190.354 329.959 190.307 329.922 190.27 329.876C190.234 329.83 190.207 329.777 190.194 329.719C190.181 329.662 190.18 329.603 190.193 329.545L192.277 320.182C192.291 320.119 192.32 320.061 192.362 320.012C192.404 319.963 192.457 319.925 192.517 319.901L204.493 315.234L207.596 281.146C207.603 281.07 207.632 280.997 207.68 280.937L217.501 268.602C217.566 268.52 217.66 268.468 217.764 268.456C217.868 268.444 217.972 268.474 218.054 268.539C218.135 268.604 218.188 268.699 218.199 268.802C218.211 268.906 218.181 269.01 218.116 269.091L208.368 281.334L205.254 315.547C205.248 315.62 205.221 315.69 205.177 315.748C205.133 315.806 205.074 315.851 205.005 315.878L192.999 320.557L190.961 329.716C190.942 329.803 190.893 329.881 190.823 329.937C190.754 329.993 190.667 330.023 190.578 330.023ZM253.671 329.631L251.588 321.754L243.701 317.444L239.981 294.854L247.077 316.413L255.079 319.487L261.261 329.63L253.671 329.631Z" fill="#242D35"/>
<path d="M253.671 330.023C253.585 330.023 253.5 329.994 253.431 329.942C253.363 329.889 253.313 329.814 253.291 329.731L251.251 322.017L243.512 317.789C243.46 317.76 243.415 317.72 243.38 317.671C243.346 317.622 243.323 317.567 243.313 317.508L239.593 294.918C239.577 294.82 239.598 294.72 239.652 294.637C239.707 294.555 239.791 294.496 239.887 294.472C239.983 294.448 240.085 294.462 240.172 294.51C240.259 294.558 240.324 294.637 240.355 294.732L247.392 316.113L255.22 319.12C255.301 319.151 255.37 319.208 255.415 319.282L261.597 329.425C261.633 329.485 261.653 329.553 261.654 329.623C261.655 329.692 261.638 329.761 261.604 329.822C261.57 329.883 261.52 329.934 261.459 329.969C261.399 330.004 261.331 330.023 261.261 330.022L253.671 330.023V330.023ZM244.058 317.191L251.777 321.409C251.871 321.461 251.941 321.549 251.968 321.653L253.974 329.237L260.561 329.237L254.813 319.805L246.935 316.779C246.881 316.758 246.832 316.726 246.792 316.684C246.751 316.641 246.721 316.591 246.703 316.536L241.193 299.795L244.058 317.192V317.191ZM45.7881 322.444C45.723 322.444 45.6589 322.428 45.6016 322.397C45.5442 322.366 45.4955 322.322 45.4596 322.267C45.4238 322.213 45.402 322.151 45.3963 322.086C45.3905 322.021 45.401 321.956 45.4266 321.896L47.5098 317.041C47.5528 316.948 47.6303 316.876 47.726 316.839C47.8217 316.802 47.9279 316.804 48.0222 316.845C48.1164 316.885 48.1911 316.96 48.2305 317.055C48.2698 317.149 48.2707 317.256 48.2329 317.351L46.1497 322.206C46.1194 322.276 46.0689 322.337 46.0047 322.379C45.9404 322.421 45.8651 322.444 45.7881 322.444ZM79.4186 310.158C79.3564 310.158 79.295 310.144 79.2395 310.115C79.184 310.087 79.1361 310.046 79.0997 309.995C79.0632 309.945 79.0393 309.887 79.0299 309.825C79.0204 309.764 79.0258 309.701 79.0454 309.642L86.6841 286.656C86.7004 286.607 86.7261 286.562 86.7599 286.523C86.7937 286.484 86.8348 286.452 86.881 286.429C86.9271 286.406 86.9774 286.392 87.0289 286.388C87.0804 286.384 87.1321 286.391 87.1811 286.407C87.2301 286.423 87.2755 286.449 87.3145 286.483C87.3536 286.516 87.3856 286.557 87.4088 286.603C87.4319 286.65 87.4458 286.7 87.4495 286.751C87.4533 286.803 87.4468 286.854 87.4306 286.903L79.7919 309.889C79.7659 309.967 79.7158 310.035 79.6489 310.084C79.5819 310.132 79.5015 310.158 79.4188 310.158L79.4186 310.158ZM116.025 255.075L115.874 289.281L110.969 257.62L116.025 255.075Z" fill="#242D35"/>
<path d="M115.873 289.674C115.779 289.674 115.689 289.641 115.617 289.58C115.546 289.519 115.499 289.434 115.485 289.341L110.581 257.68C110.568 257.598 110.582 257.514 110.62 257.44C110.658 257.366 110.718 257.306 110.792 257.269L115.848 254.724C115.908 254.694 115.975 254.68 116.042 254.683C116.11 254.686 116.175 254.706 116.232 254.741C116.289 254.776 116.337 254.826 116.369 254.885C116.402 254.943 116.419 255.01 116.418 255.077L116.267 289.283C116.266 289.387 116.225 289.487 116.151 289.56C116.077 289.633 115.977 289.674 115.873 289.674ZM111.402 257.842L115.502 284.315L115.629 255.714L111.402 257.842ZM149.656 231.595C149.601 231.595 149.548 231.584 149.498 231.562C149.448 231.541 149.403 231.509 149.366 231.469C149.329 231.429 149.301 231.382 149.284 231.331C149.266 231.279 149.259 231.225 149.263 231.171L150.751 212.738C150.755 212.686 150.769 212.636 150.793 212.59C150.816 212.544 150.849 212.503 150.888 212.47C150.927 212.436 150.973 212.411 151.022 212.395C151.071 212.379 151.123 212.374 151.175 212.378C151.279 212.386 151.375 212.435 151.443 212.515C151.51 212.594 151.544 212.697 151.535 212.801L150.047 231.234C150.039 231.333 149.995 231.424 149.922 231.491C149.849 231.558 149.754 231.595 149.656 231.595H149.656ZM272.777 330.023H19.4699C19.3656 330.023 19.2656 329.982 19.1918 329.908C19.1181 329.834 19.0767 329.735 19.0767 329.63C19.0767 329.526 19.1181 329.426 19.1918 329.353C19.2656 329.279 19.3656 329.238 19.4699 329.238H272.777C272.881 329.238 272.981 329.279 273.055 329.353C273.129 329.426 273.17 329.526 273.17 329.63C273.17 329.735 273.129 329.834 273.055 329.908C272.981 329.982 272.881 330.023 272.777 330.023Z" fill="#242D35"/>
</g>
<g clip-path="url(#clip3_1_26669)">
<path d="M181.163 114.477H108.76C106.276 108.736 115.835 98.0851 127.049 105.186C131.339 86.3768 162.498 86.6034 165.283 107.754C173.411 99.4448 183.572 108.283 181.163 114.477Z" fill="white"/>
</g>
<g clip-path="url(#clip4_1_26669)">
<path d="M223.218 97.3665L213.025 105.643L163.673 145.717L156.559 126.616L146.592 99.8547L223.218 97.3665Z" fill="url(#paint2_linear_1_26669)"/>
<path d="M163.673 146.11C163.593 146.11 163.515 146.085 163.449 146.04C163.383 145.994 163.333 145.929 163.305 145.854L146.224 99.9923C146.202 99.9339 146.194 99.8711 146.202 99.8091C146.209 99.7471 146.231 99.6878 146.265 99.636C146.3 99.5842 146.347 99.5414 146.401 99.5111C146.456 99.4809 146.516 99.464 146.579 99.462L223.205 96.9736C223.287 96.9704 223.368 96.9935 223.436 97.0394C223.505 97.0853 223.557 97.1518 223.585 97.2293C223.644 97.3875 223.595 97.5655 223.464 97.6719L163.92 146.022C163.849 146.08 163.762 146.11 163.673 146.11ZM147.15 100.23L163.85 145.067L222.064 97.7973L147.15 100.23Z" fill="#242D35"/>
<path d="M213.025 105.643L163.673 145.717L156.559 126.616C159.707 129.065 164.112 129.901 167.896 128.588C172.013 127.161 175.212 123.538 179.48 122.666C181.396 122.277 183.431 122.467 185.26 121.781C187.35 120.997 188.853 119.197 190.435 117.622C196.546 111.547 204.753 108.255 213.025 105.643Z" fill="#242D35"/>
<path d="M163.673 146.11C163.593 146.11 163.515 146.085 163.449 146.04C163.383 145.994 163.333 145.929 163.305 145.854L156.191 126.754C156.161 126.674 156.158 126.586 156.183 126.504C156.207 126.422 156.257 126.35 156.326 126.299C156.395 126.249 156.479 126.222 156.564 126.223C156.649 126.224 156.732 126.253 156.8 126.306C159.886 128.707 164.192 129.457 167.767 128.216C169.566 127.593 171.229 126.511 172.838 125.465C174.87 124.144 176.971 122.777 179.402 122.281C180.187 122.121 180.991 122.056 181.769 121.993C182.953 121.898 184.071 121.807 185.122 121.413C186.797 120.785 188.121 119.426 189.401 118.112C189.653 117.854 189.904 117.596 190.158 117.344C196.513 111.026 205.223 107.694 212.906 105.268C212.993 105.241 213.087 105.245 213.172 105.279C213.256 105.314 213.326 105.377 213.369 105.457C213.412 105.538 213.426 105.631 213.408 105.72C213.391 105.81 213.342 105.891 213.271 105.948L163.92 146.022C163.849 146.08 163.762 146.11 163.673 146.11ZM157.365 127.656L163.849 145.067L211.144 106.664C204.074 109.008 196.405 112.241 190.711 117.902C190.46 118.153 190.21 118.406 189.963 118.662C188.622 120.037 187.236 121.459 185.397 122.149C184.244 122.582 183.018 122.681 181.832 122.777C181.077 122.838 180.297 122.901 179.558 123.051C177.274 123.518 175.327 124.784 173.266 126.125C171.617 127.196 169.913 128.305 168.024 128.959C164.594 130.15 160.539 129.628 157.365 127.656L157.365 127.656Z" fill="#242D35"/>
<path d="M189.316 210.04L147.87 98.7679C147.558 97.9322 146.63 97.5075 145.795 97.8192L145.795 97.8193C144.961 98.1311 144.536 99.0613 144.848 99.897L186.294 211.17C186.606 212.005 187.534 212.43 188.369 212.118L188.369 212.118C189.203 211.806 189.627 210.876 189.316 210.04Z" fill="white"/>
<path d="M187.804 212.614C187.52 212.614 187.238 212.553 186.972 212.431C186.732 212.322 186.516 212.167 186.337 211.974C186.157 211.781 186.018 211.554 185.926 211.307L144.48 100.034C144.388 99.7871 144.345 99.5242 144.354 99.2605C144.363 98.9969 144.425 98.7377 144.535 98.498C144.644 98.2577 144.799 98.0414 144.992 97.8616C145.185 97.6819 145.411 97.5422 145.658 97.4506C146.694 97.0632 147.851 97.5929 148.238 98.6303L189.684 209.903C190.07 210.94 189.541 212.099 188.506 212.486C188.277 212.572 188.04 212.614 187.804 212.614ZM146.358 98.11C146.216 98.11 146.072 98.1348 145.932 98.1873C145.627 98.3013 145.384 98.5275 145.249 98.8245C145.114 99.1215 145.102 99.4534 145.216 99.7592L186.662 211.032C186.717 211.183 186.802 211.321 186.911 211.438C187.021 211.556 187.152 211.65 187.298 211.716C187.444 211.784 187.601 211.821 187.761 211.827C187.922 211.832 188.081 211.806 188.231 211.75C188.534 211.636 188.78 211.407 188.914 211.112C189.049 210.817 189.061 210.481 188.948 210.178L147.502 98.9051C147.415 98.6716 147.258 98.4704 147.054 98.3284C146.849 98.1863 146.606 98.1101 146.358 98.11Z" fill="#242D35"/>
</g>
<g clip-path="url(#clip5_1_26669)">
<path d="M67.4489 315.938L65.5007 323.63L77.3951 324.964L81.2916 313.271L67.4489 315.938Z" fill="url(#paint3_linear_1_26669)"/>
<path d="M77.3954 325.357C77.3808 325.357 77.3663 325.356 77.3513 325.354L65.4571 324.021C65.4013 324.015 65.3475 323.996 65.2993 323.968C65.2511 323.939 65.2096 323.9 65.1777 323.854C65.1457 323.808 65.124 323.755 65.1141 323.7C65.1041 323.645 65.1061 323.588 65.1199 323.534L67.0681 315.841C67.0864 315.769 67.125 315.703 67.1793 315.652C67.2337 315.601 67.3015 315.566 67.3749 315.552L81.2175 312.885C81.2849 312.872 81.3545 312.877 81.4194 312.899C81.4843 312.922 81.5423 312.961 81.5875 313.012C81.6328 313.064 81.6637 313.126 81.6773 313.194C81.6908 313.261 81.6865 313.331 81.6648 313.396L77.7684 325.088C77.7423 325.166 77.6923 325.234 77.6254 325.283C77.5585 325.331 77.4782 325.357 77.3957 325.357H77.3954ZM65.9925 323.29L77.1228 324.537L80.7061 313.785L67.7687 316.277L65.9925 323.29V323.29Z" fill="#242D35"/>
<path d="M163.424 271.169L162.399 277.016L149.992 277.682L151.017 268.452L163.424 271.169Z" fill="url(#paint4_linear_1_26669)"/>
<path d="M149.992 278.075C149.937 278.075 149.882 278.064 149.832 278.041C149.781 278.019 149.736 277.986 149.699 277.944C149.662 277.903 149.635 277.855 149.618 277.802C149.601 277.749 149.595 277.694 149.601 277.639L150.627 268.408C150.633 268.354 150.65 268.301 150.678 268.253C150.706 268.206 150.744 268.165 150.788 268.133C150.833 268.1 150.884 268.078 150.938 268.067C150.992 268.056 151.048 268.056 151.101 268.068L163.508 270.786C163.608 270.807 163.694 270.866 163.751 270.951C163.807 271.035 163.829 271.138 163.812 271.238L162.786 277.084C162.771 277.171 162.726 277.251 162.66 277.31C162.593 277.369 162.509 277.404 162.42 277.408L150.013 278.075C150.006 278.075 149.999 278.075 149.992 278.075H149.992ZM151.36 268.929L150.434 277.265L162.066 276.64L162.972 271.473L151.36 268.929ZM66.3313 320.351C68.4383 320.351 69.7047 322.605 71.8068 322.81C73.9089 323.015 76.7081 321.538 78.5384 321.533C77.3952 324.963 78.4322 325.524 77.9462 327.159C77.7341 327.872 77.2972 328.499 76.7004 328.944C76.1036 329.389 75.379 329.63 74.6345 329.63H50.0031C49.116 329.63 48.5213 328.718 48.8782 327.906L49.1345 327.323C49.6128 326.235 50.3918 325.306 51.3798 324.646C52.3678 323.985 53.5237 323.621 54.7118 323.595L58.0291 323.536C59.8898 323.503 61.6818 322.844 63.1316 321.677C63.9953 320.982 65.1146 320.351 66.3313 320.351V320.351Z" fill="#242D35"/>
<path d="M74.6345 330.023H50.0031C49.4533 330.023 48.9456 329.748 48.6451 329.288C48.3446 328.827 48.2971 328.251 48.5184 327.748L48.7746 327.165C49.8084 324.813 52.1355 323.258 54.7032 323.202L58.0222 323.143C59.7776 323.112 61.5047 322.483 62.8851 321.371C64.0505 320.433 65.2099 319.957 66.3313 319.957C67.5488 319.957 68.4862 320.614 69.3926 321.248C70.1866 321.805 70.9366 322.33 71.8451 322.418C72.9331 322.523 74.2648 322.136 75.5507 321.76C76.6383 321.442 77.6658 321.142 78.5372 321.14H78.5384C78.6007 321.14 78.662 321.154 78.7175 321.183C78.7729 321.211 78.8208 321.252 78.8572 321.303C78.8937 321.353 78.9175 321.412 78.9269 321.473C78.9363 321.535 78.9309 321.598 78.9112 321.657C78.2495 323.643 78.3438 324.592 78.4273 325.43C78.4843 326.004 78.5382 326.546 78.323 327.271C77.8411 328.891 76.3243 330.023 74.6343 330.023L74.6345 330.023ZM66.3313 320.744C65.3936 320.744 64.4002 321.161 63.378 321.984C61.8622 323.204 59.9651 323.895 58.0359 323.929L54.7187 323.988C52.4568 324.037 50.4054 325.409 49.4943 327.482L49.238 328.064C49.1223 328.328 49.1461 328.617 49.3033 328.858C49.4605 329.099 49.7156 329.237 50.0031 329.237H74.6345C75.9791 329.237 77.186 328.336 77.5697 327.046C77.741 326.47 77.6988 326.045 77.6453 325.508C77.5665 324.716 77.4702 323.749 77.9904 321.968C77.3336 322.058 76.5697 322.282 75.7714 322.515C74.4134 322.912 73.0076 323.322 71.7689 323.201C70.6551 323.092 69.7841 322.482 68.942 321.893C68.0981 321.302 67.3012 320.744 66.3315 320.744L66.3313 320.744ZM150.224 275.596C149.936 277.133 149.505 278.362 149.005 279.593C148.505 280.823 147.659 283.362 150.966 283.362H177.91C178.693 283.362 179.204 282.539 178.856 281.837L178.125 280.364C177.765 279.639 177.235 279.012 176.581 278.535C175.927 278.058 175.167 277.746 174.367 277.625L168.338 276.717C166.713 276.472 165.24 275.697 163.998 274.619C163.721 274.378 163.378 274.208 162.963 274.208C161.54 274.208 158.618 275.67 157.08 275.67C154.619 275.67 150.697 273.067 150.223 275.596L150.224 275.596Z" fill="#242D35"/>
<path d="M177.91 283.755H150.966C149.751 283.755 148.912 283.423 148.472 282.77C147.811 281.789 148.252 280.402 148.641 279.444C149.086 278.347 149.54 277.113 149.837 275.523C149.938 274.981 150.187 274.587 150.576 274.351C151.463 273.812 152.851 274.233 154.319 274.679C155.287 274.973 156.287 275.276 157.08 275.276C157.8 275.276 158.921 274.904 160.005 274.544C161.135 274.169 162.202 273.815 162.963 273.815C163.433 273.815 163.868 273.985 164.256 274.322C165.517 275.416 166.948 276.109 168.397 276.328L174.426 277.236C175.288 277.366 176.107 277.703 176.812 278.217C177.517 278.731 178.088 279.407 178.477 280.189L179.207 281.662C179.318 281.882 179.37 282.128 179.358 282.374C179.347 282.621 179.272 282.86 179.141 283.069C179.012 283.279 178.831 283.453 178.615 283.573C178.4 283.693 178.157 283.755 177.91 283.754V283.755ZM150.61 275.668C150.3 277.326 149.83 278.605 149.369 279.74C149.184 280.196 148.621 281.583 149.124 282.331C149.409 282.754 150.029 282.968 150.966 282.968H177.91C178.023 282.97 178.135 282.941 178.233 282.886C178.332 282.831 178.415 282.752 178.473 282.655C178.534 282.56 178.568 282.45 178.574 282.337C178.579 282.224 178.555 282.112 178.504 282.011L177.773 280.539C177.441 279.871 176.952 279.292 176.349 278.853C175.746 278.413 175.046 278.125 174.308 278.014L168.28 277.105C166.684 276.865 165.114 276.108 163.741 274.916C163.496 274.704 163.242 274.601 162.963 274.601C162.329 274.601 161.273 274.951 160.253 275.29C159.109 275.67 157.927 276.062 157.079 276.062C156.17 276.062 155.113 275.742 154.091 275.432C152.852 275.056 151.57 274.667 150.984 275.023C150.791 275.14 150.669 275.351 150.61 275.668Z" fill="#242D35"/>
<path d="M86.034 217.759C88.0848 217.092 89.6742 215.092 91.1096 214.785C92.5451 214.477 92.5742 217.554 92.5742 217.554L87.9822 219.246L86.034 217.759V217.759Z" fill="url(#paint5_linear_1_26669)"/>
<path d="M87.9821 219.639C87.897 219.639 87.8132 219.611 87.7437 219.559L85.7955 218.071C85.7384 218.028 85.6943 217.97 85.668 217.903C85.6417 217.836 85.6342 217.764 85.6462 217.693C85.6583 217.622 85.6894 217.556 85.7364 217.502C85.7833 217.447 85.8442 217.407 85.9124 217.385C86.9078 217.061 87.7908 216.402 88.6446 215.765C89.4688 215.149 90.2477 214.567 91.0271 214.4C91.4005 214.32 91.7501 214.4 92.0381 214.631C92.9211 215.338 92.9651 217.326 92.9672 217.55C92.968 217.632 92.9437 217.711 92.8977 217.778C92.8516 217.844 92.7861 217.895 92.71 217.923L88.1181 219.615C88.0745 219.631 88.0286 219.639 87.9823 219.64L87.9821 219.639ZM86.8241 217.867L88.0487 218.802L92.1707 217.283C92.1267 216.566 91.9408 215.559 91.5463 215.244C91.4434 215.161 91.3339 215.138 91.1916 215.169C90.5802 215.3 89.8684 215.832 89.1147 216.394C88.4284 216.907 87.6692 217.474 86.8241 217.867V217.867Z" fill="#242D35"/>
<path d="M159.333 168.846C161.075 167.899 163.065 166.71 163.988 165.941C164.911 165.172 166.022 164.157 166.885 163.633C169.038 162.326 170.176 163.312 172.537 162.287C174.575 161.402 174.691 163.056 173.191 163.864C174.473 163.685 174.806 164.351 174.216 165.326C175.267 165.172 175.882 166.12 175.113 166.813C176.382 166.967 176.081 168.089 174.03 169.313C170.269 171.556 168.205 171.114 166.577 172.056C164.296 173.377 163.527 174.095 161.527 176.197C159.643 174.159 158.68 172.038 159.333 168.846Z" fill="url(#paint6_linear_1_26669)"/>
<path d="M161.527 176.59H161.524C161.471 176.59 161.417 176.578 161.368 176.556C161.319 176.535 161.275 176.503 161.239 176.464C159.02 174.063 158.335 171.762 158.948 168.767C158.96 168.711 158.983 168.658 159.017 168.612C159.052 168.566 159.095 168.528 159.146 168.501C160.756 167.624 162.808 166.413 163.736 165.639C163.95 165.461 164.174 165.269 164.403 165.074C165.184 164.406 165.992 163.716 166.681 163.297C167.918 162.546 168.871 162.498 169.792 162.452C170.557 162.414 171.348 162.374 172.381 161.926C173.921 161.257 174.398 161.94 174.508 162.166C174.706 162.574 174.574 163.089 174.206 163.54C174.471 163.637 174.632 163.791 174.729 163.939C174.844 164.113 174.974 164.446 174.817 164.958C175.234 165.053 175.576 165.302 175.745 165.662C175.886 165.962 175.885 166.289 175.754 166.592C176.095 166.77 176.208 167.034 176.245 167.208C176.395 167.919 175.68 168.786 174.232 169.65C171.887 171.049 170.202 171.424 168.848 171.726C168.016 171.911 167.358 172.058 166.774 172.396C164.588 173.662 163.836 174.34 161.812 176.468C161.775 176.506 161.731 176.537 161.682 176.558C161.633 176.579 161.58 176.59 161.527 176.59ZM159.683 169.103C159.205 171.639 159.749 173.563 161.536 175.618C163.407 173.663 164.216 172.968 166.38 171.715C167.069 171.317 167.814 171.151 168.677 170.958C169.976 170.669 171.593 170.309 173.829 168.975C175.162 168.18 175.514 167.551 175.476 167.371C175.463 167.31 175.318 167.233 175.066 167.203C174.991 167.194 174.921 167.163 174.863 167.115C174.804 167.067 174.762 167.003 174.739 166.931C174.716 166.859 174.715 166.782 174.734 166.709C174.754 166.636 174.795 166.571 174.851 166.52C174.963 166.418 175.137 166.216 175.034 165.996C174.948 165.813 174.679 165.655 174.273 165.714C174.2 165.725 174.124 165.715 174.056 165.684C173.988 165.654 173.93 165.605 173.889 165.543C173.848 165.481 173.825 165.408 173.823 165.333C173.822 165.259 173.841 165.185 173.88 165.122C174.123 164.72 174.136 164.467 174.073 164.371C174.008 164.272 173.752 164.182 173.245 164.253C173.154 164.266 173.061 164.247 172.983 164.198C172.904 164.149 172.846 164.074 172.817 163.986C172.789 163.898 172.792 163.803 172.826 163.718C172.86 163.632 172.923 163.561 173.004 163.517C173.664 163.162 173.876 162.665 173.8 162.509C173.758 162.42 173.419 162.332 172.694 162.647C171.53 163.152 170.627 163.198 169.831 163.237C168.932 163.282 168.156 163.321 167.089 163.969C166.454 164.354 165.671 165.024 164.913 165.671C164.682 165.869 164.456 166.062 164.24 166.242C163.089 167.202 160.635 168.581 159.683 169.102V169.103Z" fill="#242D35"/>
<path d="M154.888 171.248C156.427 170.519 159.333 168.846 159.333 168.846L165.27 178.453L159.541 181.94L154.503 176.056L154.888 171.248L154.888 171.248Z" fill="white"/>
<path d="M159.541 182.334C159.484 182.334 159.428 182.321 159.376 182.298C159.325 182.274 159.279 182.239 159.242 182.196L154.205 176.312C154.171 176.272 154.145 176.227 154.129 176.178C154.113 176.128 154.107 176.076 154.112 176.025L154.496 171.217C154.502 171.148 154.525 171.082 154.564 171.025C154.604 170.968 154.657 170.923 154.72 170.893C156.227 170.179 159.108 168.522 159.137 168.505C159.226 168.454 159.331 168.44 159.43 168.465C159.529 168.49 159.614 168.553 159.668 168.639L165.604 178.247C165.631 178.291 165.65 178.34 165.658 178.391C165.666 178.442 165.664 178.495 165.652 178.545C165.64 178.596 165.618 178.643 165.588 178.685C165.557 178.727 165.519 178.763 165.474 178.79L159.745 182.277C159.684 182.314 159.613 182.334 159.541 182.334V182.334ZM154.908 175.924L159.622 181.431L164.728 178.323L159.199 169.376C158.432 169.812 156.52 170.891 155.262 171.505L154.908 175.924L154.908 175.924Z" fill="#242D35"/>
<path d="M84.983 174.171C89.3922 172.658 92.1094 172.3 96.0314 171.864C99.9533 171.428 112.668 175.223 112.668 175.223L127.023 214.914L102.107 221.581L83.3294 185.376L84.9828 174.171H84.983Z" fill="white"/>
<path d="M102.107 221.974C102.035 221.974 101.964 221.954 101.903 221.917C101.841 221.879 101.791 221.826 101.758 221.762L82.9805 185.557C82.9425 185.484 82.9285 185.401 82.9406 185.319L84.594 174.114C84.6046 174.043 84.6345 173.975 84.6805 173.92C84.7266 173.865 84.787 173.823 84.8552 173.799C89.2353 172.296 91.9832 171.918 95.9879 171.473C99.9417 171.03 112.258 174.69 112.78 174.846C112.9 174.881 112.995 174.972 113.038 175.089L127.393 214.78C127.411 214.831 127.419 214.886 127.415 214.94C127.412 214.994 127.397 215.047 127.371 215.096C127.346 215.144 127.311 215.186 127.269 215.221C127.226 215.255 127.177 215.279 127.125 215.294L102.208 221.96C102.175 221.969 102.141 221.974 102.107 221.974V221.974ZM83.7368 185.308L102.31 221.119L126.508 214.645L112.366 175.544C110.771 175.076 99.6166 171.862 96.0746 172.254C92.2053 172.685 89.5932 173.025 85.3365 174.466L83.7368 185.308Z" fill="#242D35"/>
<path d="M94.8535 170.402L91.0499 164.907C94.8007 162.91 94.987 158.888 94.5218 156.177C95.1941 155.864 95.9309 155.405 95.7495 154.659C95.6454 154.231 95.0575 153.902 93.9727 154.093C93.0402 151.667 89.3271 145.448 83.5988 146.787C77.6774 148.172 77.5235 157.095 77.5235 157.095L81.1379 160.941L84.2908 172.556L93.8269 173.672L94.8535 170.403V170.402Z" fill="url(#paint7_linear_1_26669)"/>
<path d="M93.8269 174.064C93.8117 174.064 93.7964 174.064 93.7811 174.062L84.2452 172.946C84.1673 172.937 84.0939 172.905 84.0344 172.854C83.975 172.802 83.9323 172.735 83.9117 172.659L80.7843 161.138L77.2371 157.364C77.167 157.289 77.1287 157.19 77.1304 157.088C77.1369 156.711 77.3602 147.842 83.5094 146.404C89.2662 145.058 93.0712 150.933 94.2223 153.662C95.4315 153.541 96.0072 154.055 96.1316 154.566C96.3684 155.541 95.497 156.122 94.9557 156.403C95.259 158.466 95.3643 162.766 91.6179 165.036L95.177 170.178C95.2462 170.278 95.2651 170.404 95.2289 170.52L94.202 173.789C94.177 173.869 94.1271 173.939 94.0597 173.988C93.9923 174.038 93.9109 174.064 93.8273 174.064H93.8269ZM84.6003 172.196L93.5492 173.243L94.421 170.468L90.7266 165.13C90.695 165.085 90.6735 165.033 90.6633 164.978C90.6532 164.924 90.6547 164.868 90.6678 164.814C90.6809 164.76 90.7052 164.709 90.7393 164.665C90.7733 164.622 90.8162 164.585 90.8651 164.559C94.6092 162.566 94.5204 158.493 94.1342 156.243C94.1196 156.158 94.1334 156.071 94.1735 155.994C94.2136 155.918 94.2777 155.857 94.3559 155.82C95.3682 155.35 95.4284 155.002 95.3675 154.752C95.3219 154.564 94.9207 154.325 94.0405 154.48C93.9507 154.496 93.8581 154.48 93.7786 154.435C93.6992 154.39 93.6379 154.319 93.6054 154.234C92.6852 151.839 89.1115 145.901 83.6881 147.17C78.5535 148.37 77.9808 155.771 77.9224 156.945L81.4238 160.671C81.468 160.718 81.4999 160.775 81.5168 160.838L84.6003 172.196Z" fill="#242D35"/>
<path d="M90.2023 155.08C91.3685 154.684 92.1348 153.835 91.9138 153.185C91.6928 152.535 90.5683 152.329 89.4021 152.725C88.2359 153.122 87.4697 153.97 87.6906 154.621C87.9116 155.271 89.0361 155.477 90.2023 155.08Z" fill="white"/>
<path d="M89.0577 155.674C88.202 155.674 87.5204 155.341 87.3184 154.747C87.0232 153.878 87.883 152.826 89.2756 152.353C90.6686 151.879 91.9905 152.189 92.2859 153.058C92.581 153.927 91.7214 154.979 90.3286 155.452C89.888 155.602 89.4539 155.674 89.0575 155.674H89.0577ZM90.5629 152.916C90.2555 152.916 89.8994 152.971 89.5285 153.097C88.5331 153.436 87.9335 154.114 88.0626 154.494C88.1919 154.874 89.0801 155.046 90.0757 154.708C91.0711 154.369 91.6707 153.691 91.5416 153.311C91.4604 153.073 91.0803 152.916 90.5629 152.916Z" fill="#242D35"/>
<path d="M90.941 154.159C91.3404 154.159 91.6642 153.835 91.6642 153.436C91.6642 153.036 91.3404 152.712 90.941 152.712C90.5416 152.712 90.2178 153.036 90.2178 153.436C90.2178 153.835 90.5416 154.159 90.941 154.159Z" fill="#242D35"/>
<path d="M91.893 160.126C91.0379 160.126 90.1346 159.815 89.5339 159.253C89.4577 159.182 89.413 159.084 89.4095 158.979C89.406 158.875 89.444 158.774 89.5152 158.698C89.5864 158.621 89.6849 158.577 89.7891 158.573C89.8933 158.57 89.9946 158.608 90.0708 158.679C90.7466 159.311 92.0261 159.532 92.809 159.151C92.9028 159.106 93.0108 159.099 93.1093 159.133C93.2078 159.167 93.2888 159.239 93.3346 159.333C93.4293 159.528 93.3481 159.763 93.153 159.858C92.7807 160.039 92.3436 160.126 91.893 160.126ZM91.0497 164.906C90.161 165.453 87.9565 165.453 86.6747 164.906C86.1193 164.669 85.3417 165.505 87.0849 166.094C88.1992 166.471 89.3428 166.142 89.8534 166.966C90.648 168.248 92.4327 168.537 93.048 167.793L91.0497 164.906Z" fill="#242D35"/>
<path d="M92.0198 168.59C91.9634 168.59 91.9064 168.588 91.8484 168.584C90.9115 168.52 90.0191 167.98 89.5193 167.174C89.3084 166.833 88.9203 166.777 88.2525 166.708C87.8577 166.666 87.4103 166.62 86.9591 166.467C86.1557 166.195 85.7088 165.829 85.6306 165.379C85.5836 165.107 85.6884 164.84 85.911 164.663C86.1655 164.462 86.5258 164.415 86.8292 164.545C87.9938 165.042 90.0576 165.056 90.8439 164.572C90.9295 164.519 91.0321 164.501 91.1306 164.521C91.2291 164.542 91.3158 164.6 91.373 164.683L93.3711 167.57C93.4199 167.64 93.4443 167.725 93.4406 167.81C93.4369 167.896 93.4054 167.978 93.3507 168.044C93.06 168.395 92.5811 168.59 92.0198 168.59V168.59ZM86.4163 165.269C86.4637 165.35 86.6637 165.537 87.2109 165.722C87.5792 165.847 87.9628 165.887 88.334 165.925C89.0364 165.999 89.763 166.074 90.1875 166.759C90.6287 167.471 91.3869 167.764 91.9021 167.8C92.1367 167.816 92.3496 167.784 92.5129 167.711L90.9184 165.407C89.8023 165.848 87.7787 165.805 86.5207 165.268C86.5041 165.261 86.4863 165.258 86.4684 165.258C86.4505 165.258 86.4327 165.262 86.4163 165.269Z" fill="#242D35"/>
<path d="M170.499 227.739C170.408 228.926 170.08 231.325 169.613 234.413C169.591 234.558 169.567 234.708 169.544 234.857C167.594 247.591 163.424 271.169 163.424 271.169H148.043C148.043 271.169 150.812 242.402 150.504 231.478L116.514 229.17L84.3675 315.938H67.4482L92.9814 219.939L126.236 210.094C126.236 210.094 135.108 210.574 144.36 211.623C145.777 211.785 147.057 211.93 148.222 212.062C152.157 212.508 154.763 212.807 156.759 213.068C167.732 214.511 170.961 221.694 170.499 227.739Z" fill="url(#paint8_linear_1_26669)"/>
<path d="M170.499 227.739C170.408 228.926 170.08 231.325 169.612 234.413C169.591 234.558 169.567 234.708 169.544 234.857C167.462 232.184 168.96 228.466 167.156 226.274C166.613 225.612 165.831 225.174 165.303 224.499C164.601 223.607 164.428 222.422 164.029 221.36C161.869 215.6 155.665 216.52 153.959 216.42C149.46 216.161 149.279 213.77 148.222 212.062C152.157 212.508 154.763 212.807 156.759 213.068C167.732 214.511 170.961 221.694 170.499 227.739ZM67.4489 315.938L93.4422 219.017L96.0315 218.454L69.3201 315.938H67.4489Z" fill="white"/>
<path d="M84.3678 316.331H67.4491C67.3889 316.331 67.3296 316.317 67.2756 316.291C67.2216 316.264 67.1745 316.225 67.1378 316.177C67.1011 316.13 67.0758 316.074 67.064 316.015C67.0521 315.956 67.0539 315.895 67.0692 315.837L92.6011 219.839C92.6183 219.774 92.6521 219.714 92.6991 219.666C92.7461 219.617 92.8047 219.582 92.8693 219.563L126.124 209.717C126.169 209.704 126.216 209.699 126.263 209.702C126.458 209.715 145.8 211.079 155.169 212.331C166.974 213.909 171.62 219.046 170.704 229.508C170.18 235.497 163.875 270.882 163.811 271.239C163.795 271.33 163.747 271.412 163.676 271.471C163.606 271.53 163.516 271.563 163.424 271.563H148.043C147.989 271.563 147.935 271.551 147.884 271.529C147.834 271.507 147.789 271.475 147.753 271.434C147.716 271.394 147.688 271.346 147.67 271.294C147.653 271.242 147.647 271.187 147.652 271.132C147.68 270.848 150.356 242.88 150.12 231.846L116.78 229.582L84.7363 316.075C84.7085 316.15 84.6582 316.215 84.5923 316.261C84.5265 316.307 84.4481 316.331 84.3678 316.331ZM67.9605 315.545H84.0945L116.145 229.034C116.174 228.954 116.228 228.886 116.3 228.839C116.371 228.793 116.455 228.772 116.54 228.778L150.531 231.086C150.629 231.092 150.72 231.135 150.788 231.205C150.856 231.276 150.895 231.369 150.897 231.467C151.182 241.559 148.818 267.138 148.476 270.776H163.095C163.734 267.184 169.428 235.087 169.922 229.439C170.803 219.369 166.499 214.638 155.065 213.111C146.007 211.9 127.577 210.583 126.279 210.491L93.3043 220.254L67.9605 315.545Z" fill="#242D35"/>
<path d="M92.2269 217.207L125.95 207.858L126.858 211.134L93.1349 220.483L92.2269 217.207Z" fill="url(#paint9_linear_1_26669)"/>
<path d="M93.1351 220.877C93.0491 220.877 92.9656 220.848 92.8972 220.796C92.8288 220.744 92.7793 220.671 92.7564 220.588L91.8484 217.312C91.8345 217.262 91.8306 217.21 91.8369 217.159C91.8432 217.107 91.8595 217.058 91.885 217.013C91.9104 216.968 91.9445 216.928 91.9852 216.897C92.026 216.865 92.0726 216.841 92.1224 216.828L125.845 207.478C125.946 207.45 126.053 207.464 126.144 207.515C126.235 207.567 126.301 207.652 126.329 207.752L127.237 211.028C127.251 211.078 127.255 211.13 127.249 211.182C127.242 211.233 127.226 211.282 127.201 211.327C127.175 211.372 127.141 211.412 127.1 211.444C127.06 211.475 127.013 211.499 126.963 211.512L93.2402 220.862C93.206 220.872 93.1706 220.877 93.1351 220.877ZM92.7112 217.481L93.4092 219.999L126.374 210.86L125.676 208.341L92.7112 217.481Z" fill="#242D35"/>
<path d="M110.642 212.102L116.628 210.442L117.536 213.719L111.549 215.378L110.642 212.102Z" fill="white"/>
<path d="M111.55 215.771C111.464 215.771 111.38 215.743 111.312 215.691C111.243 215.639 111.194 215.566 111.171 215.483L110.263 212.206C110.249 212.156 110.245 212.104 110.251 212.053C110.258 212.002 110.274 211.952 110.3 211.907C110.325 211.862 110.359 211.823 110.4 211.791C110.44 211.759 110.487 211.736 110.537 211.722L116.523 210.063C116.573 210.049 116.625 210.045 116.676 210.051C116.727 210.058 116.777 210.074 116.822 210.099C116.867 210.125 116.906 210.159 116.938 210.2C116.97 210.24 116.993 210.287 117.007 210.337L117.915 213.613C117.943 213.714 117.929 213.821 117.878 213.912C117.827 214.003 117.741 214.069 117.641 214.097L111.655 215.757C111.62 215.766 111.585 215.771 111.55 215.771ZM111.126 212.375L111.824 214.894L117.052 213.444L116.354 210.926L111.126 212.375H111.126ZM110.054 232.102C109.962 232.102 109.874 232.071 109.803 232.013C109.733 231.955 109.684 231.875 109.667 231.785C109.649 231.696 109.663 231.603 109.706 231.522C109.75 231.442 109.82 231.379 109.904 231.345L125.946 224.765C125.994 224.746 126.045 224.736 126.097 224.736C126.148 224.736 126.199 224.747 126.247 224.766C126.295 224.786 126.338 224.816 126.374 224.852C126.411 224.889 126.439 224.932 126.459 224.98C126.479 225.028 126.489 225.079 126.488 225.131C126.488 225.182 126.478 225.233 126.458 225.281C126.438 225.329 126.409 225.372 126.372 225.408C126.336 225.445 126.292 225.473 126.244 225.493L110.202 232.073C110.154 232.093 110.103 232.102 110.053 232.102H110.054Z" fill="#242D35"/>
<path d="M119.897 227.948C119.819 227.948 119.742 227.925 119.677 227.881C119.612 227.837 119.561 227.774 119.532 227.701L114.312 214.657C114.275 214.561 114.277 214.453 114.318 214.359C114.359 214.264 114.436 214.189 114.532 214.15C114.628 214.112 114.736 214.113 114.831 214.153C114.926 214.193 115.002 214.269 115.042 214.365L120.262 227.409C120.286 227.468 120.295 227.533 120.288 227.597C120.281 227.661 120.259 227.722 120.223 227.775C120.187 227.829 120.138 227.872 120.082 227.902C120.025 227.932 119.962 227.948 119.897 227.948H119.897Z" fill="#242D35"/>
<path d="M113.283 225.179C113.205 225.179 113.128 225.155 113.063 225.111C112.998 225.067 112.947 225.005 112.918 224.931L109.365 216.028C109.346 215.98 109.336 215.929 109.337 215.877C109.337 215.826 109.348 215.775 109.369 215.727C109.389 215.68 109.419 215.637 109.455 215.601C109.492 215.565 109.536 215.536 109.584 215.517C109.632 215.498 109.683 215.489 109.735 215.489C109.786 215.49 109.837 215.501 109.885 215.521C109.932 215.541 109.975 215.571 110.011 215.608C110.047 215.645 110.076 215.689 110.095 215.737L113.506 224.283L117.937 222.633C117.986 222.614 118.038 222.605 118.09 222.606C118.142 222.607 118.193 222.619 118.241 222.64C118.288 222.662 118.331 222.692 118.367 222.73C118.402 222.768 118.43 222.813 118.448 222.862C118.467 222.911 118.475 222.963 118.473 223.015C118.471 223.067 118.458 223.118 118.436 223.165C118.414 223.212 118.383 223.255 118.344 223.29C118.306 223.325 118.261 223.352 118.212 223.369L113.42 225.154C113.376 225.171 113.33 225.179 113.283 225.179ZM98.3699 278.143C98.9025 273.554 96.1783 269.389 96.8086 266.392C97.8259 261.554 102.594 262.247 109.326 248.57C105.759 257.951 98.3699 278.143 98.3699 278.143Z" fill="#242D35"/>
<path d="M98.3703 278.536C98.3148 278.536 98.26 278.525 98.2094 278.502C98.1588 278.479 98.1135 278.446 98.0767 278.405C98.0398 278.363 98.0121 278.314 97.9954 278.261C97.9787 278.209 97.9734 278.153 97.9798 278.098C98.251 275.759 97.6343 273.477 97.0903 271.465C96.584 269.593 96.1058 267.824 96.424 266.311C96.8788 264.148 98.0623 263.011 99.7006 261.436C101.857 259.364 105.117 256.231 108.974 248.396C109.018 248.306 109.096 248.236 109.191 248.201C109.286 248.167 109.39 248.17 109.483 248.21C109.575 248.25 109.649 248.325 109.688 248.418C109.727 248.511 109.729 248.615 109.694 248.71C106.168 257.981 98.8132 278.076 98.7393 278.278C98.7117 278.354 98.6615 278.419 98.5955 278.465C98.5295 278.511 98.451 278.536 98.3705 278.536H98.3703ZM106.985 253.674C104.242 258.163 101.918 260.396 100.245 262.003C98.6513 263.535 97.5981 264.547 97.1932 266.473C96.914 267.801 97.3473 269.404 97.8491 271.259C98.2329 272.68 98.6519 274.23 98.7875 275.862C100.386 271.504 104.105 261.382 106.985 253.674ZM79.446 310.947C79.384 310.947 79.323 310.932 79.2678 310.904C79.2127 310.875 79.1649 310.835 79.1285 310.784C79.0921 310.734 79.068 310.676 79.0581 310.615C79.0483 310.554 79.0531 310.491 79.072 310.432L103.373 235.203C103.405 235.104 103.476 235.021 103.568 234.974C103.614 234.95 103.665 234.936 103.716 234.932C103.767 234.928 103.819 234.934 103.868 234.95C103.918 234.966 103.963 234.991 104.002 235.025C104.042 235.058 104.074 235.099 104.097 235.145C104.121 235.191 104.135 235.241 104.139 235.293C104.143 235.344 104.137 235.396 104.122 235.445L79.8202 310.674C79.7946 310.753 79.7446 310.822 79.6775 310.871C79.6103 310.92 79.5291 310.947 79.446 310.947ZM152.812 266.486C152.758 266.486 152.704 266.475 152.654 266.453C152.605 266.431 152.56 266.4 152.523 266.36C152.486 266.32 152.458 266.273 152.44 266.222C152.422 266.171 152.415 266.116 152.42 266.062L154.111 244.524C154.12 244.42 154.169 244.324 154.248 244.256C154.327 244.189 154.43 244.155 154.534 244.163C154.585 244.167 154.636 244.181 154.682 244.204C154.728 244.228 154.769 244.26 154.802 244.299C154.836 244.339 154.861 244.384 154.877 244.433C154.893 244.482 154.899 244.534 154.895 244.585L153.203 266.124C153.196 266.222 153.151 266.314 153.078 266.381C153.006 266.448 152.911 266.486 152.812 266.486ZM150.504 231.478C154.452 231.734 156.554 233.58 156.349 236.093C156.144 238.606 150.812 247.58 149.569 253.015C150.094 243.683 150.607 236.811 150.504 231.478V231.478Z" fill="#242D35"/>
<path d="M149.57 253.408C149.516 253.408 149.463 253.397 149.414 253.376C149.365 253.355 149.321 253.324 149.284 253.285C149.247 253.246 149.219 253.2 149.2 253.15C149.182 253.1 149.174 253.046 149.177 252.993C149.283 251.103 149.389 249.314 149.489 247.618C149.882 240.972 150.193 235.723 150.111 231.485C150.11 231.431 150.121 231.377 150.142 231.327C150.162 231.276 150.194 231.231 150.233 231.193C150.272 231.156 150.319 231.127 150.37 231.108C150.421 231.09 150.476 231.082 150.53 231.086C152.928 231.241 154.751 231.968 155.803 233.187C156.507 234.002 156.831 235.018 156.741 236.125C156.64 237.36 155.49 239.814 154.035 242.92C152.429 246.345 150.61 250.227 149.952 253.103C149.933 253.189 149.884 253.267 149.814 253.322C149.745 253.378 149.659 253.408 149.57 253.408L149.57 253.408ZM150.904 231.905C150.958 236.095 150.655 241.226 150.274 247.664C150.232 248.374 150.189 249.1 150.146 249.843C151.015 247.51 152.219 244.941 153.323 242.587C154.632 239.793 155.868 237.155 155.957 236.061C156.031 235.156 155.779 234.362 155.208 233.701C154.357 232.715 152.874 232.097 150.904 231.905ZM156.503 232.256C156.423 232.256 156.344 232.231 156.278 232.185C156.212 232.139 156.162 232.074 156.134 231.999C156.106 231.923 156.102 231.841 156.123 231.763C156.143 231.685 156.187 231.616 156.248 231.564C156.611 231.254 156.625 231.119 156.625 231.118C156.589 231.056 156.318 230.927 156.173 230.857C155.832 230.695 155.445 230.51 155.385 230.114C155.328 229.737 155.625 229.46 155.723 229.37C156.094 229.025 156.137 228.758 156.076 228.662C156.012 228.563 155.745 228.475 155.294 228.662C154.744 228.889 154.159 228.792 153.836 228.42C153.546 228.085 153.535 227.611 153.806 227.151C153.859 227.062 153.913 226.94 153.878 226.868C153.797 226.704 153.4 226.474 151.971 226.306L133.634 224.948C133.582 224.944 133.532 224.93 133.486 224.907C133.44 224.883 133.399 224.851 133.365 224.812C133.331 224.773 133.306 224.728 133.289 224.679C133.273 224.63 133.267 224.578 133.271 224.527C133.275 224.475 133.288 224.425 133.312 224.379C133.335 224.333 133.367 224.291 133.406 224.258C133.445 224.224 133.49 224.198 133.539 224.182C133.588 224.166 133.64 224.16 133.692 224.163L152.046 225.523C153.355 225.677 154.277 225.904 154.582 226.518C154.688 226.733 154.757 227.085 154.483 227.55C154.439 227.625 154.346 227.808 154.43 227.904C154.512 227.999 154.737 228.042 154.994 227.936C155.739 227.628 156.423 227.747 156.737 228.238C156.983 228.621 156.985 229.27 156.258 229.946C156.242 229.961 156.226 229.976 156.211 229.993C156.294 230.044 156.424 230.106 156.511 230.148C156.881 230.325 157.342 230.545 157.404 231.021C157.467 231.496 157.065 231.9 156.758 232.162C156.687 232.223 156.597 232.256 156.503 232.256L156.503 232.256Z" fill="#242D35"/>
<path d="M108.592 220.554C103.337 223.222 95.7485 224.452 90.7508 222.862C90.4363 219.707 89.8782 216.43 89.0606 213.102V213.098C87.7596 207.81 85.8021 202.4 83.1136 197.177C80.4545 192.005 77.0821 187.016 72.9235 182.506C72.5422 182.092 72.1531 181.681 71.7561 181.274C74.4722 179.22 77.7896 177.354 80.8673 175.911C82.3216 175.229 83.7228 174.641 84.9826 174.172C89.3122 176.985 94.5241 182.85 98.9932 190.82C103.523 198.901 107.289 209.143 108.592 220.554Z" fill="url(#paint10_linear_1_26669)"/>
<path d="M80.8673 175.911C80.2344 177.116 79.1869 178.276 78.3615 178.996C77.4221 179.817 76.1721 180.167 75.0873 180.782C74.2756 181.244 73.574 181.842 72.9235 182.506C72.5422 182.092 72.1531 181.681 71.7561 181.274C74.4722 179.22 77.7896 177.354 80.8673 175.911Z" fill="white"/>
<path d="M95.9187 223.958C93.9749 223.958 92.1625 223.724 90.6317 223.237C90.5585 223.213 90.4938 223.169 90.4454 223.11C90.3971 223.05 90.3673 222.977 90.3597 222.901C90.0409 219.703 89.4753 216.438 88.6788 213.196C88.6766 213.187 88.6748 213.178 88.6734 213.17C87.3154 207.657 85.3273 202.337 82.7642 197.357C79.7203 191.435 75.922 186.116 71.4747 181.548C71.4358 181.508 71.4058 181.461 71.3868 181.408C71.3677 181.356 71.36 181.3 71.3642 181.244C71.3684 181.189 71.3844 181.135 71.4111 181.086C71.4378 181.037 71.4746 180.994 71.5191 180.96C75.73 177.775 81.164 175.175 84.8454 173.803C84.903 173.782 84.9647 173.774 85.0257 173.781C85.0867 173.788 85.1453 173.809 85.1968 173.842C89.9222 176.912 95.0758 183.03 99.336 190.628C102.908 196.999 107.48 207.355 108.983 220.51C108.992 220.589 108.976 220.67 108.938 220.741C108.9 220.811 108.841 220.869 108.77 220.905C104.888 222.875 100.101 223.958 95.9187 223.958V223.958ZM91.1155 222.562C95.7033 223.911 102.776 222.985 108.17 220.326C106.651 207.431 102.162 197.276 98.6503 191.012C94.5619 183.722 89.4476 177.609 84.9335 174.61C81.4138 175.94 76.3677 178.362 72.349 181.322C76.7171 185.873 80.4547 191.144 83.463 196.998C86.0576 202.038 88.0693 207.424 89.4423 213.004C89.4444 213.013 89.4464 213.022 89.4478 213.031C90.2286 216.214 90.7893 219.419 91.1153 222.563L91.1155 222.562Z" fill="#242D35"/>
<path d="M98.9933 190.82L98.9913 190.822L87.5198 187.171L88.2902 180.786L82.4454 179.094L84.9826 174.172C89.3122 176.985 94.5242 182.85 98.9933 190.82Z" fill="url(#paint11_linear_1_26669)"/>
<path d="M98.9913 191.215C98.9514 191.215 98.9113 191.209 98.8722 191.196L87.4007 187.546C87.3135 187.518 87.2388 187.461 87.1893 187.384C87.1398 187.307 87.1188 187.215 87.1297 187.124L87.86 181.071L82.3363 179.471C82.2806 179.455 82.2291 179.427 82.1856 179.388C82.142 179.35 82.1076 179.302 82.0846 179.249C82.0617 179.196 82.0509 179.138 82.053 179.08C82.055 179.022 82.0699 178.965 82.0966 178.914L84.6336 173.991C84.6588 173.942 84.6939 173.899 84.7368 173.865C84.7796 173.831 84.8291 173.806 84.8822 173.791C84.9353 173.777 84.9908 173.775 85.045 173.783C85.0993 173.792 85.1511 173.812 85.1972 173.842C89.9226 176.912 95.0762 183.03 99.3364 190.627C99.3783 190.702 99.3947 190.788 99.383 190.873C99.3713 190.958 99.3322 191.037 99.2715 191.098L99.2696 191.1C99.1959 191.173 99.0959 191.215 98.9917 191.215H98.9913ZM87.9488 186.895L98.1549 190.143C94.2142 183.342 89.4148 177.664 85.1306 174.742L83.0138 178.849L88.3995 180.409C88.489 180.435 88.5665 180.492 88.6179 180.569C88.6693 180.647 88.6915 180.741 88.6803 180.833L87.9488 186.895ZM89.0606 213.098C87.7596 207.81 85.8021 202.4 83.1136 197.177C83.1215 197.159 83.1274 197.144 83.1352 197.128C85.1359 196.21 88.021 195.748 89.6345 198.197C91.0554 200.358 87.9836 207.629 89.0606 213.098Z" fill="#242D35"/>
<path d="M89.0602 213.491C88.9724 213.491 88.8871 213.462 88.818 213.407C88.7489 213.353 88.6999 213.277 88.6789 213.192C87.3209 207.671 85.3308 202.343 82.7642 197.357C82.7372 197.305 82.7224 197.247 82.7207 197.188C82.719 197.129 82.7306 197.071 82.7545 197.017C82.7673 196.987 82.775 196.97 82.7836 196.952C82.8237 196.872 82.8899 196.808 82.9713 196.771C84.087 196.259 87.8887 194.833 89.9625 197.981C90.7386 199.161 90.3687 201.407 89.9008 204.25C89.435 207.078 88.9069 210.284 89.4462 213.022C89.4574 213.079 89.4558 213.138 89.4416 213.194C89.4274 213.251 89.4009 213.303 89.364 213.348C89.3271 213.393 89.2807 213.429 89.2282 213.454C89.1757 213.479 89.1183 213.491 89.0602 213.491ZM83.6375 197.339C85.591 201.184 87.2065 205.228 88.4596 209.403C88.5498 207.615 88.8483 205.803 89.1253 204.122C89.5305 201.661 89.9131 199.336 89.3061 198.414C87.7605 196.067 85.0362 196.766 83.6375 197.339Z" fill="#242D35"/>
<path d="M161.655 182.632C158.039 185.587 146.447 193.07 133.683 192.844C130.155 192.783 126.537 192.131 122.974 190.633L122.978 190.637C125.474 194.561 128.125 203.173 129.125 207.633C129.615 209.817 129.487 210.533 128.318 211.863C126.934 213.44 123.896 214.979 120.936 215.555C118.884 202.801 115.354 193.263 110.29 185.799C106.436 180.12 101.692 175.642 96.0316 171.864C108.543 169.021 119.104 174.215 127.976 175.612C128.072 175.628 128.168 175.642 128.264 175.656C129.617 175.856 130.927 175.966 132.201 175.941C135.906 175.866 139.296 175.465 142.279 174.919C142.291 174.917 142.305 174.913 142.316 174.911C148.666 173.745 153.163 171.929 154.888 171.248C156.502 173.786 161.655 182.632 161.655 182.632Z" fill="url(#paint12_linear_1_26669)"/>
<path d="M120.936 215.948C120.842 215.948 120.752 215.915 120.681 215.855C120.61 215.794 120.563 215.71 120.548 215.618C118.561 203.269 115.099 193.588 109.964 186.02C106.305 180.629 101.676 176.105 95.8132 172.191C95.7493 172.148 95.6994 172.088 95.6695 172.017C95.6396 171.946 95.6311 171.868 95.6451 171.793C95.659 171.717 95.6948 171.647 95.748 171.592C95.8011 171.536 95.8694 171.498 95.9443 171.481C105.029 169.417 113.076 171.541 120.176 173.414C122.944 174.144 125.559 174.834 128.037 175.224C128.132 175.24 128.226 175.253 128.32 175.267C129.755 175.48 131.021 175.574 132.193 175.548C135.525 175.481 138.895 175.139 142.208 174.532C142.224 174.529 142.239 174.525 142.254 174.523C148.372 173.399 152.727 171.68 154.586 170.945L154.744 170.883C154.829 170.85 154.923 170.847 155.01 170.875C155.097 170.903 155.171 170.961 155.22 171.038C156.819 173.553 161.943 182.346 161.995 182.435C162.042 182.516 162.058 182.611 162.042 182.703C162.025 182.795 161.976 182.878 161.904 182.937C161.382 183.363 149.116 193.244 134.265 193.244C134.069 193.244 133.873 193.242 133.676 193.238C130.256 193.179 126.97 192.568 123.892 191.421C126.203 195.652 128.558 203.311 129.509 207.548C130.025 209.852 129.857 210.707 128.612 212.124C127.155 213.784 124.029 215.355 121.011 215.942C120.986 215.947 120.961 215.949 120.935 215.949L120.936 215.948ZM97.016 172.057C102.604 175.908 107.059 180.339 110.615 185.579C115.759 193.159 119.242 202.816 121.258 215.086C123.957 214.481 126.753 213.051 128.022 211.604C129.1 210.378 129.207 209.797 128.742 207.719C127.724 203.181 125.084 194.685 122.649 190.853C122.605 190.787 122.582 190.709 122.583 190.63C122.584 190.55 122.609 190.473 122.655 190.408C122.706 190.334 122.78 190.281 122.866 190.256C122.952 190.231 123.044 190.236 123.126 190.27C126.415 191.653 129.969 192.387 133.689 192.451C145.335 192.655 156.568 186.178 161.145 182.538C160.273 181.044 156.298 174.243 154.729 171.734C152.773 172.506 148.435 174.187 142.387 175.297L142.347 175.306C138.994 175.92 135.583 176.266 132.208 176.334C130.992 176.356 129.683 176.263 128.207 176.045C128.108 176.031 128.01 176.016 127.912 176C125.397 175.604 122.763 174.909 119.975 174.173C113.198 172.386 105.548 170.367 97.0156 172.056L97.016 172.057Z" fill="#242D35"/>
<path d="M110.618 178.966L110.29 185.799C106.436 180.12 101.692 175.642 96.0316 171.864C96.4168 171.889 102.824 173.222 102.824 173.222L102.721 175.274L110.618 178.966Z" fill="url(#paint13_linear_1_26669)"/>
<path d="M110.29 186.192C110.226 186.192 110.162 186.176 110.106 186.146C110.049 186.116 110.001 186.073 109.965 186.02C106.306 180.628 101.677 176.105 95.8134 172.191C95.7413 172.143 95.6871 172.072 95.6592 171.99C95.6313 171.908 95.6313 171.819 95.6591 171.737C95.6869 171.655 95.7411 171.584 95.8131 171.536C95.8851 171.488 95.971 171.465 96.0575 171.471C96.4501 171.497 101.829 172.613 102.904 172.837C103.093 172.876 103.226 173.048 103.216 173.241L103.127 175.03L110.784 178.61C110.855 178.643 110.914 178.696 110.955 178.763C110.995 178.83 111.014 178.907 111.011 178.985L110.682 185.818C110.678 185.919 110.634 186.014 110.561 186.083C110.488 186.153 110.391 186.192 110.29 186.192ZM97.7801 172.592C102.677 176.078 106.679 180.035 109.953 184.626L110.213 179.211L102.555 175.63C102.484 175.597 102.425 175.544 102.385 175.477C102.345 175.41 102.325 175.333 102.329 175.255L102.414 173.538C100.871 173.218 99.3261 172.902 97.7802 172.592L97.7801 172.592ZM133.683 192.844C130.155 192.783 126.537 192.131 122.974 190.633C121.451 187.938 120.132 185.581 119.261 184.028C118.711 183.047 117.634 180.13 121.588 180.812C124.562 181.325 125.342 184.46 125.639 185.992C126.305 189.426 129.123 191.698 133.683 192.844Z" fill="#242D35"/>
<path d="M133.683 193.238H133.676C129.856 193.171 126.204 192.417 122.822 190.995C122.741 190.962 122.675 190.902 122.632 190.827C121.346 188.552 120.206 186.518 119.358 185.004L118.919 184.221C118.733 183.889 117.844 182.18 118.618 181.086C119.113 180.385 120.136 180.163 121.655 180.425C123.924 180.816 125.394 182.664 126.025 185.917C126.647 189.124 129.256 191.327 133.779 192.463C133.872 192.487 133.953 192.543 134.008 192.622C134.062 192.701 134.086 192.798 134.074 192.893C134.062 192.988 134.016 193.076 133.944 193.139C133.872 193.203 133.779 193.238 133.683 193.238L133.683 193.238ZM123.25 190.322C125.606 191.299 128.098 191.944 130.687 192.25C127.612 190.894 125.787 188.822 125.253 186.067C124.683 183.126 123.463 181.534 121.522 181.199C120.343 180.996 119.561 181.114 119.26 181.539C118.844 182.128 119.303 183.299 119.604 183.836L120.044 184.62C121.109 186.522 122.178 188.423 123.25 190.322H123.25ZM141.609 178.968C142.584 181.132 137.877 181.537 135.414 179.308C133.964 177.993 130.601 176.051 128.264 175.656C129.617 175.856 130.927 175.966 132.201 175.941C135.906 175.866 139.296 175.465 142.279 174.918C139.758 175.455 140.856 177.295 141.609 178.968Z" fill="#242D35"/>
<path d="M139.457 181.184C138.034 181.184 136.331 180.669 135.151 179.599C133.802 178.377 130.506 176.434 128.199 176.043C128.098 176.025 128.007 175.968 127.948 175.884C127.888 175.8 127.863 175.696 127.88 175.595C127.896 175.493 127.951 175.402 128.034 175.34C128.117 175.279 128.22 175.253 128.322 175.267C129.755 175.479 131.022 175.572 132.193 175.548C135.525 175.481 138.895 175.139 142.208 174.532C142.31 174.513 142.414 174.536 142.5 174.594C142.585 174.652 142.644 174.741 142.664 174.842C142.684 174.944 142.664 175.049 142.607 175.135C142.55 175.221 142.462 175.282 142.361 175.303C141.737 175.436 141.344 175.658 141.192 175.962C140.911 176.523 141.351 177.472 141.776 178.39C141.841 178.53 141.905 178.669 141.967 178.807C142.296 179.535 142.132 180.209 141.52 180.655C141.038 181.005 140.296 181.184 139.457 181.184H139.457ZM131.455 176.334C133.181 177.15 134.818 178.237 135.678 179.017C137.34 180.521 140.122 180.7 141.057 180.019C141.366 179.794 141.426 179.519 141.25 179.13C141.189 178.994 141.126 178.857 141.063 178.721C140.561 177.637 140.042 176.516 140.485 175.619C137.745 176.038 134.98 176.277 132.209 176.334C131.958 176.339 131.706 176.339 131.455 176.334L131.455 176.334ZM167.679 168.077C167.583 168.077 167.49 168.042 167.418 167.978C167.347 167.914 167.301 167.826 167.29 167.73C167.278 167.634 167.303 167.538 167.358 167.459C167.413 167.38 167.495 167.324 167.588 167.302C167.941 167.218 169.699 166.717 169.645 165.107C169.642 165.013 169.673 164.921 169.732 164.848C169.791 164.774 169.875 164.724 169.968 164.708C171.228 164.478 172.456 163.86 172.983 163.531C173.026 163.503 173.075 163.485 173.126 163.476C173.177 163.467 173.229 163.469 173.279 163.481C173.33 163.492 173.377 163.514 173.419 163.544C173.461 163.574 173.497 163.612 173.524 163.655C173.552 163.699 173.57 163.748 173.579 163.799C173.587 163.85 173.586 163.902 173.574 163.952C173.562 164.002 173.541 164.05 173.511 164.092C173.481 164.134 173.443 164.17 173.399 164.197C172.869 164.529 171.686 165.13 170.423 165.417C170.295 166.929 168.949 167.786 167.771 168.067C167.741 168.074 167.71 168.078 167.679 168.078L167.679 168.077Z" fill="#242D35"/>
<path d="M169.749 167.907C169.422 167.907 169.1 167.811 168.933 167.544C168.745 167.243 168.824 166.867 169.168 166.428C169.2 166.387 169.239 166.353 169.284 166.327C169.329 166.302 169.379 166.285 169.43 166.279C169.482 166.273 169.534 166.276 169.584 166.29C169.634 166.304 169.68 166.328 169.721 166.36C169.762 166.392 169.796 166.431 169.821 166.477C169.847 166.522 169.863 166.572 169.869 166.623C169.875 166.674 169.871 166.727 169.857 166.776C169.842 166.826 169.819 166.873 169.786 166.913C169.736 166.976 169.691 167.043 169.653 167.114C169.763 167.125 169.874 167.118 169.981 167.094C171.026 166.871 173.207 165.872 173.922 165.065C173.992 164.988 174.089 164.942 174.192 164.937C174.295 164.931 174.396 164.966 174.474 165.035C174.551 165.103 174.598 165.2 174.605 165.303C174.612 165.406 174.578 165.508 174.511 165.586C173.659 166.547 171.313 167.613 170.146 167.863C170.016 167.892 169.883 167.906 169.749 167.907Z" fill="#242D35"/>
<path d="M170.553 169.109C170.059 169.109 169.499 168.891 169.31 168.438C169.211 168.201 169.145 167.721 169.815 167.174C169.896 167.109 169.999 167.078 170.103 167.089C170.206 167.1 170.301 167.151 170.367 167.232C170.432 167.312 170.463 167.415 170.453 167.519C170.443 167.622 170.392 167.717 170.312 167.784C170.054 167.994 170.029 168.12 170.035 168.135C170.069 168.216 170.346 168.352 170.637 168.319C172.222 168.151 174.19 167.227 174.826 166.544C174.897 166.468 174.995 166.423 175.1 166.419C175.204 166.416 175.305 166.453 175.381 166.524C175.458 166.596 175.503 166.694 175.506 166.798C175.51 166.902 175.472 167.004 175.401 167.08C174.657 167.88 172.551 168.906 170.72 169.101C170.665 169.106 170.609 169.11 170.553 169.109Z" fill="#242D35"/>
<path d="M171.905 170.476C170.959 170.476 170.085 170.114 169.852 169.529C169.784 169.357 169.63 168.764 170.513 168.353C170.56 168.332 170.61 168.319 170.662 168.317C170.714 168.315 170.765 168.323 170.814 168.341C170.862 168.358 170.907 168.385 170.945 168.42C170.983 168.455 171.013 168.497 171.035 168.544C171.057 168.591 171.069 168.642 171.072 168.693C171.074 168.745 171.066 168.796 171.048 168.845C171.03 168.893 171.003 168.938 170.968 168.976C170.933 169.014 170.891 169.045 170.845 169.066C170.617 169.172 170.581 169.253 170.58 169.254C170.587 169.259 170.645 169.347 170.829 169.447C171.241 169.672 172.022 169.803 172.766 169.555C172.864 169.524 172.971 169.533 173.063 169.58C173.155 169.626 173.225 169.708 173.258 169.806C173.291 169.904 173.283 170.011 173.238 170.104C173.192 170.196 173.112 170.267 173.014 170.301C172.656 170.42 172.275 170.476 171.905 170.476L171.905 170.476Z" fill="#242D35"/>
<path d="M84.2908 172.556L84.0632 174.525L89.7125 179.44L93.8269 173.671L84.2908 172.556Z" fill="white"/>
<path d="M89.7125 179.834C89.6184 179.834 89.5266 179.799 89.4545 179.737L83.8052 174.822C83.757 174.78 83.7197 174.727 83.6967 174.668C83.6736 174.608 83.6654 174.544 83.6727 174.48L83.9003 172.511C83.9123 172.407 83.965 172.312 84.0467 172.248C84.1283 172.183 84.2317 172.153 84.3364 172.165L93.8723 173.281C93.9401 173.289 94.0048 173.314 94.0599 173.355C94.1149 173.395 94.1584 173.449 94.1861 173.512C94.2138 173.574 94.2248 173.643 94.2178 173.711C94.2109 173.779 94.1864 173.844 94.1466 173.9L90.0323 179.669C89.9959 179.72 89.9479 179.761 89.8923 179.79C89.8366 179.819 89.7749 179.834 89.7123 179.834L89.7125 179.834ZM84.4773 174.365L89.6437 178.86L93.1203 173.985L84.6359 172.992L84.4771 174.365L84.4773 174.365Z" fill="#242D35"/>
<path d="M94.8535 170.402L93.8269 173.671L99.5946 174.671L97.941 171.517L94.8535 170.402Z" fill="white"/>
<path d="M99.5944 175.064C99.5722 175.064 99.5496 175.062 99.5272 175.059L93.7594 174.059C93.7043 174.049 93.6518 174.028 93.6055 173.996C93.5592 173.965 93.5201 173.924 93.491 173.876C93.4619 173.828 93.4433 173.774 93.4365 173.719C93.4297 173.663 93.4349 173.607 93.4517 173.553L94.4786 170.284C94.5106 170.182 94.5831 170.097 94.6792 170.05C94.7267 170.026 94.7784 170.012 94.8314 170.009C94.8843 170.006 94.9374 170.014 94.9872 170.032L98.0747 171.148C98.167 171.181 98.2435 171.248 98.2893 171.335L99.9427 174.489C99.9741 174.548 99.9895 174.615 99.9874 174.683C99.9853 174.751 99.9658 174.817 99.9308 174.874C99.8958 174.932 99.8465 174.98 99.7876 175.013C99.7287 175.047 99.6622 175.064 99.5946 175.064L99.5944 175.064ZM94.3363 173.361L98.8761 174.148L97.6639 171.835L95.1057 170.911L94.3363 173.361ZM81.4454 162.812C82.6492 161.939 82.0305 159.971 80.4353 159.56C78.7434 159.124 77.6815 157.207 79.2921 155.531C80.5481 154.223 82.727 155.326 83.6146 157.704C84.6699 160.533 85.4781 159.566 85.0887 157.971C84.3679 155.018 82.7127 153.23 84.9317 151.787C86.9825 150.454 92.6656 150.396 92.4682 145.787C92.3144 142.198 89.6997 141.223 86.6236 141.223C83.5475 141.223 75.242 144.249 76.0623 151.582C71.3456 158.505 79.3949 164.3 81.4454 162.813V162.812Z" fill="#242D35"/>
<path d="M80.5972 163.441C79.4723 163.441 77.9855 162.721 76.6941 161.466C74.4356 159.272 72.9927 155.507 75.6566 151.481C75.4175 149.02 76.1366 146.832 77.7955 144.977C80.3529 142.117 84.4976 140.83 86.6234 140.83C90.6218 140.83 92.7206 142.492 92.8607 145.77C93.0168 149.41 89.7534 150.462 87.3706 151.229C86.4939 151.512 85.6657 151.779 85.1457 152.117C83.8362 152.968 84.0852 153.833 84.7731 155.707C85.0074 156.345 85.2731 157.069 85.4706 157.878C85.7221 158.908 85.5368 159.71 85.0091 159.872C84.4009 160.058 83.8256 159.395 83.2461 157.842C82.7663 156.556 81.8438 155.598 80.8959 155.401C80.5404 155.328 80.0226 155.338 79.5755 155.803C78.9819 156.421 78.7663 157.093 78.9517 157.746C79.1425 158.419 79.7633 158.981 80.5332 159.18C81.505 159.43 82.2496 160.206 82.4301 161.157C82.5792 161.943 82.2972 162.681 81.6758 163.131C81.3859 163.341 81.0166 163.442 80.597 163.442L80.5972 163.441ZM86.6234 141.616C84.7004 141.616 80.7509 142.851 78.3813 145.501C76.8458 147.219 76.1969 149.25 76.4528 151.538C76.4634 151.632 76.44 151.726 76.3869 151.804C73.2417 156.42 76.246 159.935 77.2419 160.903C78.7954 162.412 80.5829 162.953 81.2147 162.494C81.5885 162.223 81.7503 161.789 81.6581 161.303C81.5341 160.65 81.0156 160.116 80.3372 159.941C79.286 159.67 78.4655 158.911 78.1958 157.96C77.9336 157.037 78.2223 156.077 79.0089 155.258C79.5519 154.693 80.2784 154.47 81.0557 154.631C82.2803 154.885 83.4019 156.01 83.983 157.567C84.3486 158.547 84.6271 158.914 84.7635 159.046C84.8036 158.882 84.8254 158.549 84.7071 158.064C84.5204 157.298 84.2627 156.597 84.0355 155.978C83.3872 154.212 82.8276 152.687 84.7179 151.458C85.3259 151.062 86.2023 150.78 87.1301 150.481C89.5093 149.715 92.2061 148.846 92.0758 145.804C91.9533 142.947 90.2209 141.616 86.6238 141.616L86.6234 141.616Z" fill="#242D35"/>
<path d="M86.034 217.759C88.0976 217.682 93.2689 216.56 94.9805 216.067C96.98 215.49 98.6334 216.528 95.788 217.528C93.2011 218.437 91.9812 218.874 92.3273 219.528C92.6734 220.182 97.6417 219.504 98.8256 219.297C100.44 219.015 101.363 219.784 100.248 220.643C101.697 221.067 101.312 222.143 99.4024 222.836C96.2119 223.992 91.8276 223.72 91.6737 224.566C91.5198 225.412 94.3846 226.003 95.7495 226.246C97.4798 226.553 97.2146 227.963 95.5188 227.861C91.02 227.592 86.1751 224.643 84.0218 225.758C84.1371 222.835 84.7395 219.028 86.034 217.758V217.759Z" fill="url(#paint14_linear_1_26669)"/>
<path d="M95.6894 228.26C95.6267 228.26 95.562 228.258 95.4954 228.254C93.4499 228.132 91.3356 227.469 89.4704 226.884C87.303 226.204 85.2552 225.562 84.2026 226.108C84.1415 226.14 84.0731 226.155 84.0044 226.152C83.9357 226.149 83.8689 226.128 83.8109 226.091C83.7528 226.054 83.7055 226.002 83.6736 225.941C83.6417 225.88 83.6263 225.812 83.6291 225.743C83.6714 224.67 83.973 219.229 85.7587 217.478C85.8286 217.41 85.9215 217.37 86.0193 217.366C87.9995 217.292 93.0826 216.205 94.8714 215.689C96.1958 215.307 97.4519 215.553 97.6704 216.237C97.8074 216.667 97.6148 217.303 95.9181 217.899C94.3858 218.438 92.8023 218.994 92.6669 219.31C93.2552 219.588 96.7143 219.267 98.7578 218.91C99.892 218.713 100.796 218.971 101.059 219.571C101.129 219.729 101.22 220.082 100.929 220.506C101.415 220.796 101.512 221.164 101.519 221.391C101.541 222.079 100.818 222.741 99.5363 223.205C97.9261 223.789 96.04 224.016 94.5245 224.198C93.5498 224.316 92.3478 224.46 92.073 224.658C92.1505 224.768 92.6656 225.299 95.8181 225.859C97.0158 226.072 97.3713 226.731 97.3123 227.231C97.2518 227.741 96.719 228.26 95.6894 228.26V228.26ZM85.2291 225.116C86.4603 225.116 88.0011 225.599 89.7054 226.134C91.5275 226.705 93.5928 227.352 95.542 227.469C96.2084 227.508 96.5154 227.273 96.5315 227.138C96.548 226.999 96.289 226.741 95.6803 226.633C92.0443 225.987 91.5815 225.321 91.4294 225.102C91.2983 224.913 91.2488 224.704 91.2865 224.496C91.4166 223.781 92.4869 223.652 94.4304 223.418C95.9062 223.241 97.7427 223.019 99.268 222.466C100.347 222.075 100.739 221.614 100.733 221.416C100.729 221.305 100.544 221.14 100.138 221.021C100.068 221.001 100.005 220.961 99.9565 220.908C99.9077 220.854 99.8748 220.788 99.8614 220.716C99.848 220.645 99.8546 220.571 99.8804 220.503C99.9063 220.436 99.9504 220.376 100.008 220.332C100.295 220.111 100.364 219.942 100.34 219.888C100.277 219.745 99.7725 219.531 98.8928 219.685C98.2547 219.796 96.7131 220.015 95.2932 220.128C92.5532 220.344 92.1463 220.027 91.9799 219.712C91.8305 219.43 91.8704 219.189 91.9301 219.036C92.1784 218.402 93.1897 218.025 95.6575 217.157C96.617 216.82 96.8534 216.547 96.9055 216.465C96.7481 216.327 96.0327 216.172 95.0896 216.445C93.3163 216.956 88.346 218.02 86.2103 218.144C85.2004 219.289 84.6108 222.383 84.4433 225.195C84.6884 225.141 84.951 225.116 85.2292 225.116L85.2291 225.116Z" fill="#242D35"/>
<path d="M81.0608 217.017C83.1372 217.632 86.0338 217.759 86.0338 217.759L84.1045 228.797L76.6261 227.427L81.0608 217.017Z" fill="white"/>
<path d="M84.1047 229.19C84.0811 229.19 84.0575 229.188 84.0339 229.184L76.5554 227.814C76.4973 227.803 76.4424 227.78 76.3947 227.745C76.3469 227.71 76.3076 227.665 76.2797 227.613C76.2518 227.561 76.2359 227.504 76.2333 227.445C76.2307 227.386 76.2415 227.327 76.2647 227.273L80.6994 216.863C80.7372 216.774 80.8063 216.702 80.8936 216.661C80.9808 216.62 81.0802 216.612 81.1727 216.64C83.1775 217.234 86.0226 217.365 86.0511 217.366C86.107 217.369 86.1616 217.383 86.2114 217.408C86.2613 217.433 86.3051 217.469 86.3401 217.513C86.3751 217.556 86.4004 217.607 86.4144 217.661C86.4283 217.715 86.4306 217.772 86.421 217.827L84.4919 228.865C84.4738 228.968 84.4152 229.06 84.3293 229.12C84.2634 229.166 84.185 229.19 84.1047 229.19V229.19ZM77.1805 227.129L83.7857 228.339L85.5708 218.126C84.7293 218.068 82.8593 217.902 81.2874 217.488L77.1805 227.129Z" fill="#242D35"/>
<path d="M79.2105 216.308C79.7942 216.575 80.4133 216.813 81.0618 217.016C81.0618 217.016 79.3697 226.17 78.2927 231.016C76.0876 231.016 71.2923 229.699 66.6227 226.878C60.7052 223.308 54.9901 217.324 54.9901 208.555C54.9901 192.864 69.8321 181.98 76.011 178.459L76.7519 179.978L84.8293 196.556C83.1647 197.051 81.6691 197.686 80.3484 198.415C75.502 201.093 72.9864 205.077 72.9864 208.402C72.9864 211.474 75.3624 214.545 79.2105 216.306V216.308Z" fill="url(#paint15_linear_1_26669)"/>
<path d="M76.7519 179.978C76.1938 180.242 75.6219 180.48 75.0873 180.782C72.1079 182.475 70.6005 186.023 67.7213 187.879C66.7505 188.504 65.6263 188.934 64.8422 189.782C64.174 190.499 63.8202 191.445 63.3328 192.296C62.4052 193.91 60.9921 195.188 59.9427 196.725C58.3547 199.046 57.6629 201.848 56.9987 204.58C56.5113 206.593 56.0199 208.689 56.4523 210.713C56.8807 212.718 58.1759 214.458 58.5807 216.467C58.6986 217.049 58.7556 217.682 59.129 218.142C59.4278 218.508 59.8778 218.704 60.2945 218.922C63.3544 220.523 65.133 223.713 66.6227 226.878C60.7052 223.308 54.9901 217.324 54.9901 208.555C54.9901 192.864 69.8321 181.98 76.011 178.459L76.7519 179.978Z" fill="white"/>
<path d="M78.2927 231.409C75.784 231.409 69.859 229.728 64.5405 225.992C60.0042 222.805 54.5969 217.193 54.5969 208.555C54.5969 201.656 57.3862 194.971 62.8875 188.684C67.9291 182.923 73.6086 179.376 75.8162 178.117C75.9066 178.07 76.0118 178.059 76.1098 178.088C76.2078 178.116 76.2908 178.182 76.3413 178.271C76.3918 178.359 76.4059 178.464 76.3806 178.563C76.3552 178.662 76.2925 178.747 76.2056 178.801C74.0742 180.015 55.3832 191.167 55.3832 208.555C55.3832 216.855 60.6087 222.269 64.9925 225.349C69.9575 228.837 75.4173 230.485 77.9791 230.614C78.9248 226.303 80.3032 218.944 80.6124 217.283C80.0801 217.105 79.5576 216.899 79.047 216.666C79.035 216.66 79.0233 216.654 79.012 216.647C75.0517 214.823 72.5933 211.666 72.5933 208.402C72.5933 204.665 75.5627 200.61 80.1584 198.071C81.554 197.301 83.0877 196.664 84.7171 196.179C84.7667 196.164 84.8188 196.159 84.8704 196.164C84.922 196.169 84.9721 196.184 85.0178 196.209C85.0635 196.233 85.1039 196.267 85.1366 196.307C85.1694 196.347 85.1938 196.393 85.2086 196.443C85.2234 196.493 85.2282 196.545 85.2227 196.596C85.2173 196.648 85.2017 196.698 85.1768 196.744C85.1519 196.789 85.1183 196.829 85.0779 196.862C85.0374 196.894 84.991 196.918 84.9412 196.933C83.3656 197.402 81.8843 198.016 80.5383 198.76C76.1895 201.162 73.3793 204.947 73.3793 208.402C73.3793 211.364 75.6763 214.256 79.3738 215.949C79.3856 215.954 79.397 215.96 79.408 215.966C79.9838 216.227 80.5752 216.453 81.1788 216.641C81.2705 216.669 81.3486 216.73 81.3983 216.813C81.4479 216.895 81.4657 216.993 81.4482 217.087C81.4313 217.179 79.7423 226.305 78.6764 231.101C78.6569 231.189 78.6084 231.267 78.5386 231.323C78.4689 231.379 78.3821 231.409 78.2927 231.409Z" fill="#242D35"/>
<path d="M79.2105 216.306V216.308C75.1914 215.427 72.8095 212.782 71.7561 212.145C70.5258 211.402 70.6791 214.35 69.6532 214.35C68.6273 214.35 68.0771 213.318 68.474 211.016C68.987 208.042 73.3441 201.632 80.3484 198.416C75.502 201.093 72.9864 205.078 72.9864 208.402C72.9864 211.474 75.3624 214.545 79.2105 216.306Z" fill="#242D35"/>
<path d="M79.2105 216.701C79.1824 216.701 79.1543 216.698 79.1264 216.692C75.9481 215.996 73.7643 214.227 72.4593 213.17C72.0914 212.872 71.7738 212.615 71.5527 212.481C71.4511 212.419 71.3943 212.413 71.378 212.419C71.23 212.471 71.0403 212.984 70.9271 213.291C70.6882 213.938 70.3908 214.743 69.653 214.743C69.171 214.743 68.7614 214.56 68.4689 214.212C67.9485 213.594 67.8198 212.497 68.0867 210.949C68.6482 207.693 73.2796 201.229 80.1845 198.058C80.2769 198.016 80.382 198.012 80.4778 198.045C80.5735 198.079 80.6526 198.148 80.6983 198.239C80.744 198.33 80.753 198.434 80.7232 198.531C80.6934 198.629 80.6272 198.71 80.5385 198.76C76.1896 201.162 73.3795 204.947 73.3795 208.402C73.3795 211.364 75.6765 214.256 79.3742 215.949C79.4427 215.98 79.5008 216.03 79.5415 216.094C79.5822 216.157 79.6038 216.231 79.6038 216.306V216.308C79.6037 216.412 79.5622 216.512 79.4885 216.586C79.4148 216.66 79.3149 216.701 79.2107 216.701H79.2105ZM71.3919 211.631C71.5741 211.631 71.764 211.69 71.9593 211.808C72.2266 211.97 72.5477 212.23 72.9544 212.559C73.6159 213.095 74.5132 213.821 75.6551 214.484C73.7118 212.756 72.5933 210.603 72.5933 208.402C72.5933 206.36 73.4795 204.224 75.0331 202.292C71.2677 205.511 69.1737 209.273 68.8614 211.083C68.5658 212.798 68.8655 213.463 69.0703 213.706C69.2128 213.875 69.4033 213.957 69.6532 213.957C69.8435 213.957 70.052 213.393 70.19 213.019C70.4018 212.445 70.621 211.852 71.1184 211.678C71.2063 211.647 71.2989 211.631 71.3921 211.631L71.3919 211.631ZM92.4026 222.361C92.3183 222.361 92.2413 222.359 92.1715 222.357C92.0673 222.353 91.9689 222.308 91.898 222.231C91.827 222.155 91.7893 222.054 91.7932 221.949C91.7948 221.898 91.8066 221.847 91.828 221.8C91.8495 221.753 91.88 221.71 91.9179 221.675C91.9558 221.64 92.0003 221.613 92.0488 221.595C92.0973 221.577 92.1489 221.569 92.2006 221.571C93.5684 221.628 98.2922 221.115 100.083 220.287C100.13 220.265 100.181 220.253 100.232 220.251C100.284 220.248 100.335 220.257 100.384 220.274C100.432 220.292 100.477 220.319 100.514 220.354C100.552 220.39 100.583 220.432 100.605 220.479C100.626 220.525 100.638 220.576 100.641 220.628C100.643 220.679 100.635 220.731 100.617 220.779C100.599 220.828 100.572 220.872 100.537 220.91C100.502 220.948 100.459 220.979 100.413 221C98.5813 221.847 94.0912 222.361 92.4022 222.361H92.4026ZM112.48 211.985C112.403 211.985 112.328 211.962 112.263 211.92C112.199 211.877 112.148 211.816 112.118 211.745C111.83 211.065 111.863 209.551 111.901 207.798C111.934 206.319 111.967 204.789 111.774 204.038C111.495 202.945 109.976 200.777 108.755 199.034C108.205 198.248 107.685 197.506 107.311 196.915C106.642 195.854 106.355 194.075 106.052 192.191C105.778 190.488 105.494 188.727 104.92 187.626C104.274 186.388 102.85 185.347 101.472 184.339C100.321 183.498 99.2342 182.704 98.5656 181.792C98.0483 181.088 97.9312 180.279 97.8074 179.424C97.5629 177.737 97.2858 175.824 93.6521 174.024C93.4576 173.927 93.378 173.691 93.4745 173.497C93.571 173.302 93.8066 173.222 94.0012 173.319C98.0045 175.303 98.3266 177.525 98.5855 179.311C98.6996 180.099 98.7983 180.78 99.1994 181.327C99.7963 182.141 100.836 182.9 101.936 183.704C103.386 184.765 104.886 185.861 105.617 187.262C106.25 188.476 106.544 190.301 106.828 192.066C107.105 193.789 107.392 195.57 107.976 196.495C108.339 197.07 108.854 197.805 109.399 198.583C110.721 200.471 112.221 202.611 112.536 203.842C112.755 204.698 112.721 206.283 112.687 207.815C112.656 209.267 112.62 210.914 112.842 211.438C112.867 211.498 112.878 211.563 112.872 211.628C112.866 211.692 112.844 211.754 112.808 211.809C112.772 211.863 112.724 211.907 112.666 211.938C112.609 211.969 112.545 211.985 112.48 211.985V211.985ZM80.1639 158.283C80.1054 158.283 80.0477 158.27 79.9949 158.245C79.9421 158.22 79.8956 158.183 79.8587 158.138C79.4872 157.681 79.441 157.091 79.7382 156.597C80.0208 156.128 80.5506 155.88 81.0547 155.979C81.1054 155.989 81.1536 156.009 81.1965 156.038C81.2394 156.067 81.2763 156.104 81.305 156.146C81.3337 156.189 81.3537 156.238 81.3638 156.288C81.3739 156.339 81.3739 156.391 81.3639 156.442C81.3539 156.492 81.3339 156.54 81.3053 156.583C81.2766 156.626 81.2398 156.663 81.1969 156.692C81.154 156.721 81.1059 156.741 81.0552 156.751C81.0046 156.761 80.9525 156.761 80.9018 156.751C80.6927 156.707 80.5049 156.847 80.4115 157.003C80.3524 157.101 80.2395 157.36 80.4685 157.641C80.5152 157.699 80.5447 157.769 80.5534 157.842C80.5622 157.916 80.55 157.991 80.5181 158.058C80.4862 158.125 80.436 158.182 80.3733 158.221C80.3106 158.261 80.2379 158.282 80.1637 158.283L80.1639 158.283Z" fill="#242D35"/>
</g>
<g clip-path="url(#clip6_1_26669)">
<path d="M62.088 131.39H91.4086C93.0923 127.084 85.4224 124.007 81.6811 128.191C81.4317 122.162 75.3207 119.393 71.1428 119.393C65.6555 119.393 59.7317 124.192 62.088 131.39Z" fill="white"/>
</g>
<defs>
<linearGradient id="paint0_linear_1_26669" x1="264.517" y1="79.47" x2="129.782" y2="276.502" gradientUnits="userSpaceOnUse">
<stop stop-color="#2F51FF"/>
<stop offset="1" stop-color="#0E33F3"/>
</linearGradient>
<linearGradient id="paint1_linear_1_26669" x1="261.261" y1="100.12" x2="41.7742" y2="338.977" gradientUnits="userSpaceOnUse">
<stop stop-color="#2F51FF"/>
<stop offset="1" stop-color="#0E33F3"/>
</linearGradient>
<linearGradient id="paint2_linear_1_26669" x1="223.218" y1="97.3665" x2="182.932" y2="166.801" gradientUnits="userSpaceOnUse">
<stop stop-color="#2F51FF"/>
<stop offset="1" stop-color="#0E33F3"/>
</linearGradient>
<linearGradient id="paint3_linear_1_26669" x1="81.2916" y1="313.271" x2="70.851" y2="328.606" gradientUnits="userSpaceOnUse">
<stop stop-color="#2F51FF"/>
<stop offset="1" stop-color="#0E33F3"/>
</linearGradient>
<linearGradient id="paint4_linear_1_26669" x1="163.424" y1="268.452" x2="155.423" y2="281.114" gradientUnits="userSpaceOnUse">
<stop stop-color="#2F51FF"/>
<stop offset="1" stop-color="#0E33F3"/>
</linearGradient>
<linearGradient id="paint5_linear_1_26669" x1="92.5742" y1="214.763" x2="88.6923" y2="220.922" gradientUnits="userSpaceOnUse">
<stop stop-color="#2F51FF"/>
<stop offset="1" stop-color="#0E33F3"/>
</linearGradient>
<linearGradient id="paint6_linear_1_26669" x1="175.871" y1="162.034" x2="162.696" y2="178.972" gradientUnits="userSpaceOnUse">
<stop stop-color="#2F51FF"/>
<stop offset="1" stop-color="#0E33F3"/>
</linearGradient>
<linearGradient id="paint7_linear_1_26669" x1="95.7774" y1="146.601" x2="70.9975" y2="164.773" gradientUnits="userSpaceOnUse">
<stop stop-color="#2F51FF"/>
<stop offset="1" stop-color="#0E33F3"/>
</linearGradient>
<linearGradient id="paint8_linear_1_26669" x1="170.541" y1="210.094" x2="69.1265" y2="317.522" gradientUnits="userSpaceOnUse">
<stop stop-color="#2F51FF"/>
<stop offset="1" stop-color="#0E33F3"/>
</linearGradient>
<linearGradient id="paint9_linear_1_26669" x1="126.858" y1="207.858" x2="119.554" y2="229.644" gradientUnits="userSpaceOnUse">
<stop stop-color="#2F51FF"/>
<stop offset="1" stop-color="#0E33F3"/>
</linearGradient>
<linearGradient id="paint10_linear_1_26669" x1="108.592" y1="174.172" x2="62.2044" y2="211.791" gradientUnits="userSpaceOnUse">
<stop stop-color="#2F51FF"/>
<stop offset="1" stop-color="#0E33F3"/>
</linearGradient>
<linearGradient id="paint11_linear_1_26669" x1="98.9933" y1="174.172" x2="83.0615" y2="191.392" gradientUnits="userSpaceOnUse">
<stop stop-color="#2F51FF"/>
<stop offset="1" stop-color="#0E33F3"/>
</linearGradient>
<linearGradient id="paint12_linear_1_26669" x1="161.655" y1="171.026" x2="123.27" y2="232.549" gradientUnits="userSpaceOnUse">
<stop stop-color="#2F51FF"/>
<stop offset="1" stop-color="#0E33F3"/>
</linearGradient>
<linearGradient id="paint13_linear_1_26669" x1="110.618" y1="171.864" x2="97.3551" y2="186.962" gradientUnits="userSpaceOnUse">
<stop stop-color="#2F51FF"/>
<stop offset="1" stop-color="#0E33F3"/>
</linearGradient>
<linearGradient id="paint14_linear_1_26669" x1="101.127" y1="215.901" x2="90.6771" y2="232.147" gradientUnits="userSpaceOnUse">
<stop stop-color="#2F51FF"/>
<stop offset="1" stop-color="#0E33F3"/>
</linearGradient>
<linearGradient id="paint15_linear_1_26669" x1="84.8293" y1="178.459" x2="39.7319" y2="206.305" gradientUnits="userSpaceOnUse">
<stop stop-color="#2F51FF"/>
<stop offset="1" stop-color="#0E33F3"/>
</linearGradient>
<clipPath id="clip0_1_26669">
<rect width="202.567" height="150.647" fill="white" transform="translate(61.95 79.47)"/>
</clipPath>
<clipPath id="clip1_1_26669">
<rect width="70.6033" height="22.42" fill="white" transform="translate(197.453 160.89)"/>
</clipPath>
<clipPath id="clip2_1_26669">
<rect width="254.093" height="230.297" fill="white" transform="translate(19.0767 99.7267)"/>
</clipPath>
<clipPath id="clip3_1_26669">
<rect width="73.16" height="23.01" fill="white" transform="translate(108.363 91.4667)"/>
</clipPath>
<clipPath id="clip4_1_26669">
<rect width="79.2567" height="115.64" fill="white" transform="translate(144.353 96.9734)"/>
</clipPath>
<clipPath id="clip5_1_26669">
<rect width="130.98" height="189.193" fill="white" transform="translate(48.38 140.83)"/>
</clipPath>
<clipPath id="clip6_1_26669">
<rect width="30.09" height="11.9967" fill="white" transform="translate(61.5567 119.393)"/>
</clipPath>
</defs>
</svg>
