<svg width="25" height="24" viewBox="0 0 25 24" fill="none" xmlns="http://www.w3.org/2000/svg">
<g clip-path="url(#clip0_2013_11962)">
<path fill-rule="evenodd" clip-rule="evenodd" d="M12.125 8C9.91586 8 8.125 9.79086 8.125 12C8.125 14.2091 9.91586 16 12.125 16C14.3341 16 16.125 14.2091 16.125 12C16.125 9.79086 14.3341 8 12.125 8ZM10.125 12C10.125 10.8954 11.0204 10 12.125 10C13.2296 10 14.125 10.8954 14.125 12C14.125 13.1046 13.2296 14 12.125 14C11.0204 14 10.125 13.1046 10.125 12Z" fill="#9BA1A8"/>
<path fill-rule="evenodd" clip-rule="evenodd" d="M20.4399 15.4038L19.525 15L20.4441 15.3939C20.4941 15.2774 20.577 15.178 20.6827 15.1081C20.788 15.0383 20.9113 15.0008 21.0375 15H21.125C21.9207 15 22.6837 14.6839 23.2463 14.1213C23.8089 13.5587 24.125 12.7957 24.125 12C24.125 11.2043 23.8089 10.4413 23.2463 9.87868C22.6837 9.31607 21.9207 9 21.125 9H20.9575C20.8313 8.99921 20.708 8.96167 20.6027 8.89195C20.5318 8.84498 20.4711 8.78479 20.4238 8.71507C20.4095 8.64692 20.3881 8.58027 20.3599 8.51624C20.3074 8.39742 20.2918 8.26561 20.315 8.13782C20.3379 8.01142 20.3977 7.89468 20.4869 7.80231L20.5421 7.7471C20.8209 7.46857 21.042 7.13784 21.1929 6.77382C21.3439 6.40963 21.4216 6.01925 21.4216 5.625C21.4216 5.23075 21.3439 4.84037 21.1929 4.47618C21.0421 4.11233 20.8211 3.78174 20.5425 3.50329C20.2639 3.22436 19.933 3.00308 19.5688 2.85211C19.2046 2.70113 18.8142 2.62343 18.42 2.62343C18.0258 2.62343 17.6354 2.70113 17.2712 2.85211C16.907 3.00308 16.5761 3.22436 16.2975 3.50329L16.2427 3.55811C16.1503 3.64728 16.0336 3.70713 15.9072 3.73005C15.7794 3.75322 15.6476 3.73752 15.5288 3.68508L15.5189 3.68086C15.4024 3.63092 15.303 3.54801 15.2331 3.44232C15.1633 3.33704 15.1258 3.21374 15.125 3.0875V3C15.125 2.20435 14.8089 1.44129 14.2463 0.87868C13.6837 0.316071 12.9206 0 12.125 0C11.3294 0 10.5663 0.316071 10.0037 0.87868C9.44107 1.44129 9.125 2.20435 9.125 3V3.1675C9.12421 3.29374 9.08667 3.41704 9.01695 3.52232C8.96998 3.59323 8.90979 3.6539 8.84007 3.70122C8.77193 3.71549 8.70527 3.73687 8.64124 3.76514C8.52242 3.81758 8.39061 3.83322 8.26282 3.81005C8.13642 3.78713 8.01968 3.72728 7.92731 3.6381L7.8725 3.58329C7.59388 3.30436 7.26302 3.08308 6.89882 2.93211C6.53463 2.78113 6.14425 2.70343 5.75 2.70343C5.35575 2.70343 4.96537 2.78113 4.60118 2.93211C4.23716 3.08301 3.90643 3.30415 3.62789 3.58289C3.34915 3.86143 3.12801 4.19216 2.97711 4.55618C2.82613 4.92037 2.74843 5.31075 2.74843 5.705C2.74843 6.09925 2.82613 6.48963 2.97711 6.85382C3.12808 7.21802 3.34936 7.54888 3.62829 7.8275L3.6831 7.88231C3.77228 7.97468 3.83213 8.09142 3.85505 8.21782C3.87822 8.34561 3.86258 8.47742 3.81014 8.59624C3.80163 8.61551 3.79374 8.63505 3.78646 8.65482C3.74144 8.77723 3.66064 8.88326 3.55455 8.95914C3.45091 9.03327 3.32783 9.07526 3.20064 9.08H3.125C2.32935 9.08 1.56629 9.39607 1.00368 9.95868C0.441071 10.5213 0.125 11.2844 0.125 12.08C0.125 12.8756 0.441071 13.6387 1.00368 14.2013C1.56629 14.7639 2.32935 15.08 3.125 15.08H3.2925C3.41874 15.0808 3.54204 15.1183 3.64732 15.1881C3.75301 15.258 3.83587 15.3574 3.88581 15.474L3.89014 15.4838C3.94258 15.6026 3.95822 15.7344 3.93505 15.8622C3.91213 15.9886 3.85228 16.1053 3.76311 16.1977L3.70829 16.2525C3.42936 16.5311 3.20808 16.862 3.05711 17.2262C2.90613 17.5904 2.82843 17.9808 2.82843 18.375C2.82843 18.7692 2.90613 19.1596 3.05711 19.5238C3.20808 19.888 3.42936 20.2189 3.70829 20.4975C3.98674 20.7761 4.31733 20.9971 4.68118 21.1479C5.04537 21.2989 5.43575 21.3766 5.83 21.3766C6.22425 21.3766 6.61463 21.2989 6.97882 21.1479C7.34284 20.997 7.67396 20.7755 7.9525 20.4967L8.0073 20.4419C8.09967 20.3527 8.21642 20.2929 8.34282 20.27C8.47061 20.2468 8.60242 20.2624 8.72124 20.3149C8.74051 20.3234 8.76005 20.3313 8.77982 20.3385C8.90223 20.3836 9.00826 20.4644 9.08414 20.5704C9.15827 20.6741 9.20026 20.7972 9.205 20.9244V21C9.205 21.7957 9.52107 22.5587 10.0837 23.1213C10.6463 23.6839 11.4093 24 12.205 24C13.0007 24 13.7637 23.6839 14.3263 23.1213C14.8889 22.5587 15.205 21.7957 15.205 21V20.8325C15.2058 20.7063 15.2433 20.583 15.3131 20.4777C15.383 20.372 15.4824 20.2891 15.599 20.2392L15.6088 20.2349C15.7276 20.1824 15.8594 20.1668 15.9872 20.19C16.1136 20.2129 16.2303 20.2727 16.3227 20.3619L16.3779 20.4171C16.6564 20.6959 16.9872 20.917 17.3512 21.0679C17.7154 21.2189 18.1058 21.2966 18.5 21.2966C18.8942 21.2966 19.2846 21.2189 19.6488 21.0679C20.0128 20.917 20.3436 20.6959 20.6221 20.4171C20.9009 20.1386 21.122 19.8078 21.2729 19.4438C21.4239 19.0796 21.5016 18.6892 21.5016 18.295C21.5016 17.9008 21.4239 17.5104 21.2729 17.1462C21.122 16.7822 20.9005 16.451 20.6217 16.1725L20.5669 16.1177C20.4777 16.0253 20.4179 15.9086 20.395 15.7822C20.3718 15.6544 20.3874 15.5226 20.4399 15.4038ZM11.4179 2.29289C11.6054 2.10536 11.8598 2 12.125 2C12.3902 2 12.6446 2.10536 12.8321 2.29289C13.0196 2.48043 13.125 2.73478 13.125 3V3.09L13.125 3.09399C13.1271 3.6108 13.2802 4.11572 13.5656 4.54661C13.8499 4.97601 14.2532 5.3132 14.7261 5.51701C15.2093 5.72908 15.7448 5.79211 16.264 5.69796C16.785 5.60349 17.2658 5.35516 17.6443 4.98491L17.7125 4.91671C17.8054 4.82374 17.9157 4.74998 18.0371 4.69965C18.1585 4.64933 18.2886 4.62343 18.42 4.62343C18.5514 4.62343 18.6815 4.64933 18.8029 4.69965C18.9243 4.74998 19.0346 4.82374 19.1275 4.91671L19.1283 4.9175C19.2213 5.01037 19.295 5.12066 19.3453 5.24206C19.3957 5.36346 19.4216 5.49359 19.4216 5.625C19.4216 5.75641 19.3957 5.88654 19.3453 6.00794C19.295 6.12934 19.2209 6.24002 19.1279 6.3329L19.0678 6.39285L19.0601 6.40073C18.6899 6.77925 18.4415 7.26 18.347 7.781C18.265 8.23332 18.3023 8.69798 18.4534 9.12961C18.4653 9.22042 18.4896 9.30938 18.5259 9.39393C18.7295 9.86896 19.0675 10.2741 19.4984 10.5594C19.9293 10.8448 20.4342 10.9979 20.951 11L20.955 11H21.125C21.3902 11 21.6446 11.1054 21.8321 11.2929C22.0196 11.4804 22.125 11.7348 22.125 12C22.125 12.2652 22.0196 12.5196 21.8321 12.7071C21.6446 12.8946 21.3902 13 21.125 13L21.035 13L21.031 13C20.5142 13.0021 20.0093 13.1552 19.5784 13.4406C19.149 13.725 18.8117 14.1283 18.6079 14.6012C18.3959 15.0843 18.3329 15.6198 18.427 16.139C18.5215 16.66 18.7698 17.1408 19.1401 17.5193L19.2083 17.5875C19.3013 17.6804 19.375 17.7907 19.4253 17.9121C19.4757 18.0335 19.5016 18.1636 19.5016 18.295C19.5016 18.4264 19.4757 18.5565 19.4253 18.6779C19.375 18.7993 19.3013 18.9096 19.2083 19.0025L19.2075 19.0033C19.1146 19.0963 19.0043 19.17 18.8829 19.2203C18.7615 19.2707 18.6314 19.2966 18.5 19.2966C18.3686 19.2966 18.2385 19.2707 18.1171 19.2203C17.9957 19.17 17.885 19.0959 17.7921 19.0029L17.7321 18.9429L17.7243 18.9351C17.3457 18.5649 16.865 18.3165 16.344 18.222C15.8248 18.1279 15.2893 18.1909 14.8062 18.4029C14.3333 18.6067 13.93 18.944 13.6456 19.3734C13.3602 19.8043 13.2071 20.3092 13.205 20.826L13.205 20.83V21C13.205 21.2652 13.0996 21.5196 12.9121 21.7071C12.7246 21.8946 12.4702 22 12.205 22C11.9398 22 11.6854 21.8946 11.4979 21.7071C11.3104 21.5196 11.205 21.2652 11.205 21V20.91L11.2047 20.8866C11.1923 20.355 11.0202 19.8395 10.7109 19.407C10.4077 18.983 9.98632 18.6581 9.49977 18.4725C9.02296 18.2689 8.49663 18.2095 7.986 18.302C7.465 18.3965 6.98421 18.6448 6.60569 19.0151L6.5375 19.0833C6.44463 19.1763 6.33434 19.25 6.21294 19.3003C6.09154 19.3507 5.96141 19.3766 5.83 19.3766C5.69859 19.3766 5.56846 19.3507 5.44706 19.3003C5.32566 19.25 5.21537 19.1763 5.1225 19.0833L5.12171 19.0825C5.02874 18.9896 4.95498 18.8793 4.90465 18.7579C4.85433 18.6365 4.82843 18.5064 4.82843 18.375C4.82843 18.2436 4.85433 18.1135 4.90465 17.9921C4.95498 17.8707 5.02913 17.76 5.1221 17.6671L5.18215 17.6072L5.18986 17.5993C5.56012 17.2207 5.80849 16.74 5.90296 16.219C5.99711 15.6998 5.93408 15.1643 5.72201 14.6811C5.5182 14.2082 5.18101 13.8049 4.75161 13.5206C4.32072 13.2352 3.8158 13.0821 3.29899 13.08H3.125C2.85978 13.08 2.60543 12.9746 2.41789 12.7871C2.23036 12.5996 2.125 12.3452 2.125 12.08C2.125 11.8148 2.23036 11.5604 2.41789 11.3729C2.60543 11.1854 2.85978 11.08 3.125 11.08H3.215L3.23838 11.0797C3.76998 11.0673 4.28554 10.8952 4.71805 10.5859C5.14198 10.2827 5.46689 9.86133 5.65245 9.37478C5.85613 8.89797 5.91555 8.37163 5.82296 7.861C5.72849 7.34 5.48016 6.85921 5.10991 6.48069L5.04171 6.4125C4.94874 6.31963 4.87498 6.20934 4.82465 6.08794C4.77433 5.96654 4.74843 5.83642 4.74843 5.705C4.74843 5.57358 4.77433 5.44346 4.82465 5.32206C4.87498 5.20066 4.94874 5.09037 5.04171 4.9975L5.0425 4.99671C5.13537 4.90374 5.24566 4.82998 5.36706 4.77965C5.48846 4.72933 5.61858 4.70343 5.75 4.70343C5.88142 4.70343 6.01154 4.72933 6.13294 4.77965C6.25434 4.82998 6.36502 4.90413 6.45789 4.99711L6.51785 5.05715L6.52573 5.06486C6.90425 5.43512 7.385 5.68349 7.906 5.77796C8.35833 5.85998 8.82298 5.82272 9.25461 5.67157C9.34542 5.65969 9.43438 5.63538 9.51893 5.59914C9.99395 5.39555 10.3991 5.0575 10.6844 4.62661C10.9698 4.19572 11.1229 3.6908 11.125 3.17399V3C11.125 2.73478 11.2304 2.48043 11.4179 2.29289Z" fill="#9BA1A8"/>
</g>
<defs>
<clipPath id="clip0_2013_11962">
<rect width="24" height="24" fill="white" transform="translate(0.125)"/>
</clipPath>
</defs>
</svg>
