<svg width="24" height="24" viewBox="0 0 24 24" fill="none" xmlns="http://www.w3.org/2000/svg">
<g clip-path="url(#clip0_2014_4638)">
<path d="M23.9136 21.3864L23.3173 7.07377C23.2586 5.66498 22.0636 4.51875 20.6535 4.51875H18.7208V2.9625C18.7208 1.32895 17.3918 0 15.7582 0C14.1247 0 12.7958 1.329 12.7958 2.9625V4.51875H10.8629C9.68591 4.51875 8.66422 5.2005 8.32935 6.12502H13.1224C14.1653 6.12502 15.1633 6.528 15.9324 7.25967C16.7016 7.99139 17.1539 8.96798 17.2059 10.0095L17.771 21.3112C17.8207 22.3047 17.5054 23.2493 16.881 24H21.4067C22.1009 24 22.7452 23.7269 23.2208 23.231C23.6964 22.7351 23.9425 22.08 23.9136 21.3864ZM17.3145 4.51875H14.202V2.9625C14.202 2.10436 14.9001 1.40625 15.7582 1.40625C16.6164 1.40625 17.3145 2.10441 17.3145 2.9625V4.51875Z" fill="#242D35"/>
<path d="M15.8014 10.0798C15.7312 8.67448 14.5294 7.53125 13.1224 7.53125H3.33168C1.92459 7.53125 0.722806 8.67453 0.652634 10.0797L0.0875092 21.3814C0.0528217 22.0758 0.294134 22.7321 0.767056 23.2292C1.23998 23.7262 1.88334 24 2.57859 24H13.8755C14.5707 24 15.2141 23.7262 15.6869 23.2292C16.1599 22.7321 16.4012 22.0758 16.3665 21.3813L15.8014 10.0798ZM11.1895 12.7531C11.1895 14.3866 9.86053 15.7156 8.22703 15.7156C6.59353 15.7156 5.26457 14.3866 5.26457 12.7531V10.4938C5.26457 10.1054 5.57934 9.79063 5.9677 9.79063C6.35596 9.79063 6.67082 10.1054 6.67082 10.4938V12.7531C6.67082 13.6112 7.36893 14.3093 8.22703 14.3093C9.08517 14.3093 9.78323 13.6112 9.78323 12.7531V10.4938C9.78323 10.1054 10.0981 9.79063 10.4864 9.79063C10.8747 9.79063 11.1895 10.1054 11.1895 10.4938V12.7531Z" fill="#242D35"/>
</g>
<defs>
<clipPath id="clip0_2014_4638">
<rect width="24" height="24" fill="white"/>
</clipPath>
</defs>
</svg>
