<svg width="25" height="24" viewBox="0 0 25 24" fill="none" xmlns="http://www.w3.org/2000/svg">
<path d="M16.3321 6.29289C16.7226 6.68342 16.7226 7.31658 16.3321 7.70711L12.3321 11.7071C11.9416 12.0976 11.3084 12.0976 10.9179 11.7071L8.91789 9.70711C8.52737 9.31658 8.52737 8.68342 8.91789 8.29289C9.30842 7.90237 9.94158 7.90237 10.3321 8.29289L11.625 9.58579L14.9179 6.29289C15.3084 5.90237 15.9416 5.90237 16.3321 6.29289Z" fill="#9BA1A8"/>
<path fill-rule="evenodd" clip-rule="evenodd" d="M2.625 4C2.625 2.34315 3.96815 1 5.625 1H19.625C21.2819 1 22.625 2.34315 22.625 4V20C22.625 21.6569 21.2819 23 19.625 23H5.625C3.96815 23 2.625 21.6569 2.625 20V4ZM4.625 17V20C4.625 20.5523 5.07272 21 5.625 21H19.625C20.1773 21 20.625 20.5523 20.625 20V17H4.625ZM20.625 15H4.625V4C4.625 3.44772 5.07272 3 5.625 3H19.625C20.1773 3 20.625 3.44772 20.625 4V15Z" fill="#9BA1A8"/>
</svg>
