<svg width="24" height="24" viewBox="0 0 24 24" fill="none" xmlns="http://www.w3.org/2000/svg">
<path fill-rule="evenodd" clip-rule="evenodd" d="M1 18C1 18.7956 1.31607 19.5587 1.87868 20.1213C2.44129 20.6839 3.20435 21 4 21H20C20.7957 21 21.5587 20.6839 22.1213 20.1213C22.6839 19.5587 23 18.7956 23 18V6C23 5.20435 22.6839 4.44129 22.1213 3.87868C21.5587 3.31607 20.7957 3 20 3H4C2.34315 3 1 4.34315 1 6V18ZM21 8.5V6C21 5.73478 20.8946 5.48043 20.7071 5.29289C20.5196 5.10536 20.2652 5 20 5L4 5C3.44772 5 3 5.44771 3 6L3 18C3 18.2652 3.10536 18.5196 3.29289 18.7071C3.48043 18.8946 3.73478 19 4 19L20 19C20.2652 19 20.5196 18.8946 20.7071 18.7071C20.8946 18.5196 21 18.2652 21 18V16H15.75C13.6789 16 12 14.3211 12 12.25C12 10.1789 13.6789 8.5 15.75 8.5H21ZM21 14V10.5H15.75C14.7835 10.5 14 11.2835 14 12.25C14 13.2165 14.7835 14 15.75 14H21Z" fill="#242D35"/>
</svg>
